<svg id="eoj8o5ssc5ra1" xmlns="http://www.w3.org/2000/svg" xmlns:xlink="http://www.w3.org/1999/xlink" viewBox="0 0 450.240000 624.240000" shape-rendering="geometricPrecision" text-rendering="geometricPrecision"><g id="eoj8o5ssc5ra2" transform="matrix(1 0 0 1 0 -3)"><path id="eoj8o5ssc5ra3" d="M97.819007,41.880883C99.699595,42.252570,101.388186,43.224863,102.746935,44.563920C103.662614,45.472215,104.206606,46.698043,104.789982,47.832795C105.550586,47.429109,106.412112,46.853117,107.281022,46.781734C108.004704,46.712812,108.657002,47.219881,108.804692,47.923871C108.935152,48.763243,108.853922,49.646923,108.841615,50.493679C109.880369,50.729984,110.879739,50.926904,111.852032,51.387205C113.264934,52.019811,114.466147,53.142256,115.312904,54.427160C116.671653,56.499745,116.895650,59.197551,115.962741,61.486749C115.207060,63.463335,113.587391,65.031312,111.667419,65.880530C110.591743,66.353139,109.503759,66.454060,108.361622,66.665749C108.415775,67.514968,108.590541,68.420801,108.452697,69.262634C108.383775,70.030623,107.532095,70.562307,106.805952,70.387541C106.001041,70.193082,105.215822,69.722935,104.477371,69.348787C104.002301,70.291542,103.519847,71.217067,102.865087,72.049055C102.513092,72.553663,101.986331,73.112424,101.981408,73.757337C101.929716,74.724708,101.932178,75.753616,101.988792,76.720986C102.020792,77.656357,102.860164,78.512960,102.968470,79.408947C102.874933,80.159705,102.380171,80.834157,102.262019,81.572607C102.458939,82.328288,103.199851,83.271044,102.909394,84.048879C102.547553,84.954711,101.939562,85.742392,101.567875,86.648225C101.043575,87.696825,101.220804,88.856192,101.196189,89.998330C101.218342,97.628987,101.188804,105.262105,101.213419,112.895224C101.218342,113.759211,101.102651,114.610891,100.967269,115.462571C96.255953,115.504416,91.534792,115.479801,86.821015,115.487186C85.765031,115.553646,84.888736,114.896425,84.765661,113.837979C84.669662,112.309386,84.342282,110.517413,84.800122,109.045434C85.097964,108.161755,85.971797,107.733454,86.828400,107.553764C87.763771,107.322383,88.979753,107.329767,89.708357,106.635623C90.402501,106.020248,90.720035,105.207952,90.700343,104.284889C90.707727,99.022197,90.688035,93.766890,90.705266,88.501736C90.742188,87.332523,90.144043,86.490689,89.560667,85.538087C89.186519,84.927635,88.590835,84.359028,88.622835,83.595962C88.551451,82.788589,89.312055,82.173214,89.629589,81.464301C89.252979,80.770157,88.558836,80.265550,88.620373,79.416331C88.541605,78.421884,89.772356,77.715433,89.860970,76.720986C89.937277,75.832384,89.942200,74.872398,89.858509,73.981334C89.777279,73.151808,89.171750,72.536432,88.708987,71.889057C88.105919,71.111223,87.653003,70.247235,87.219779,69.368479C86.370560,69.789396,85.351498,70.414617,84.389051,70.404771C83.928750,70.365387,83.237068,70.038008,83.259221,69.489092C83.145992,68.529107,83.244452,67.524814,83.288759,66.557443C81.910318,66.195602,80.605722,65.772224,79.463585,64.883622C77.543613,63.448566,76.325169,61.151984,76.347323,58.739712C76.280862,56.932969,77.021775,55.094227,78.060529,53.641941C79.468508,51.830275,81.435248,51.111516,83.557063,50.478910C83.520141,49.587847,83.421681,48.657399,83.527525,47.768796C83.515218,47.224804,84.187208,46.904809,84.640124,46.813733C85.602572,46.670966,86.665941,47.389725,87.497928,47.813103C88.241302,46.222973,89.065905,44.760841,90.478808,43.663011C92.482470,42.097495,95.313198,41.253200,97.819007,41.880883Z" transform="matrix(0.17364817766693 0.98480775301221 -0.98480775301221 0.17364817766693 340.69665441000012 500.00415988000100)" fill="rgb(251,201,40)" stroke="none" stroke-width="1"/><path id="eoj8o5ssc5ra4" d="M322.833590,41.583120C326.033543,41.575735,329.233496,41.590504,332.433449,41.575735C334.203269,41.553582,336.014935,41.792347,337.634603,42.535721C339.517653,43.436631,341.240704,44.450770,342.441917,46.213205C345.028956,49.585463,345.376028,54.464161,343.254213,58.153953C341.868387,60.694223,339.478269,62.540350,336.746001,63.433875C334.789107,63.977867,332.812520,63.945868,330.818704,63.950791C330.767012,79.170259,330.811319,94.394651,330.796550,109.616581C330.774396,111.571014,330.904856,113.422064,330.639014,115.361728C327.549829,115.467572,324.450797,115.376497,321.356689,115.423265C320.305627,115.447880,319.316103,115.351882,318.287195,115.142654C318.274888,114.514971,318.368425,113.818366,318.205966,113.205452C317.711204,112.678690,316.768448,112.499000,316.256456,113.089761C315.808463,113.739598,315.653388,114.630661,315.426930,115.378958C314.430021,115.406035,313.433113,115.406035,312.436204,115.393727C312.450973,112.806688,312.271284,110.175342,312.559280,107.600611C316.032459,107.479997,319.513024,107.588303,322.988665,107.543996C323.015741,95.189716,322.993588,82.832975,322.998511,70.478695C322.991126,68.307650,323.028049,66.134143,322.978819,63.963098C320.591162,63.933560,318.351194,63.776024,316.221995,62.584657C313.177117,60.940374,311.234991,57.846265,310.533463,54.518314C310.073162,52.172502,310.641769,49.937458,311.623909,47.810720C312.655278,45.575676,314.572788,43.754165,316.783218,42.703103C318.614575,41.804655,320.820081,41.588043,322.833590,41.583120Z" transform="matrix(-0.86602540378444 -0.50000000000000 0.50000000000000 -0.86602540378444 460.58083481499915 667.26831733999961)" fill="rgb(251,201,40)" stroke="none" stroke-width="1"/><path id="eoj8o5ssc5ra5" d="M546.168688,43.788462C547.480669,44.901061,548.241273,46.592113,548.832034,48.169936C549.548331,47.721942,550.304012,47.168104,551.121231,46.936723C551.746452,46.821033,552.487365,46.848109,552.829513,47.480715C553.336583,48.391471,552.977204,49.764989,552.863974,50.754513C554.067649,51.084355,555.227017,51.436349,556.275617,52.132955C558.018360,53.206170,559.241727,55.079373,559.758642,57.038729C560.647245,60.307604,559.081729,64.017088,556.295309,65.870599C555.222094,66.586896,554.033188,66.906891,552.822129,67.295809C552.959973,68.145027,553.179047,69.097628,553.051049,69.951770C552.925512,70.544992,552.575979,71.079138,551.916296,71.111137C550.796312,71.271135,549.846173,70.564684,548.918186,70.050230C548.307734,71.465593,547.684974,72.780036,546.515760,73.831097C545.430237,74.855082,544.123180,75.381844,542.899813,76.174447C542.429666,76.423059,542.594587,76.871052,542.535511,77.319046C542.565049,89.225332,542.537972,101.134081,542.550280,113.040367C542.552741,113.813279,542.535511,114.588652,542.518280,115.361564C539.448787,115.329564,536.374371,115.457562,533.307339,115.341872C533.048881,114.573883,532.741193,113.850201,532.339968,113.146212C531.682747,113.805894,531.266753,114.517268,530.907374,115.364025C530.220615,115.368948,529.533856,115.368948,528.849558,115.368948C528.642792,113.429284,528.770790,111.433006,528.753560,109.483496C531.382444,109.404728,534.016251,109.527803,536.640213,109.397344C536.723904,108.644124,536.812518,107.893366,536.819902,107.132762C536.814979,97.697823,536.810056,88.255501,536.822364,78.820562C536.824826,77.934421,536.728827,77.058127,536.630367,76.179370C535.020544,75.443381,533.519028,74.722161,532.362122,73.331412C531.456289,72.329581,531.099371,71.138214,530.451996,69.996077C530.387997,69.870540,530.287075,69.831156,530.154154,69.880386C529.334474,70.303764,528.453256,71.197290,527.471117,71.128368C526.863126,71.130829,526.545592,70.655759,526.338826,70.148690C526.117291,69.292087,526.464362,68.238564,526.488977,67.362269C525.664374,66.855200,524.650235,66.673049,523.783786,66.225055C522.279808,65.523527,521.137671,64.194316,520.278607,62.806028C519.313698,61.154360,519.207854,59.305772,519.454004,57.447338C519.788768,55.896592,520.775831,54.461536,521.829354,53.304630C523.133950,51.896650,524.768387,51.288659,526.523438,50.648669C526.378210,49.806835,526.176367,48.876387,526.296980,48.024707C526.385594,47.500407,526.823742,46.934262,527.392349,46.912108C528.455718,46.774264,529.585547,47.561945,530.461842,48.098552C530.823683,47.131182,531.195370,46.198273,531.791053,45.346593C532.950421,43.594003,534.954084,42.397713,536.957747,41.873413C540.044470,41.080809,543.707186,41.683877,546.168688,43.788462Z" transform="matrix(0.76604444311898 0.64278760968654 -0.64278760968654 0.76604444311898 -159.61950936500043 -18.72095436500058)" fill="rgb(251,201,40)" stroke="none" stroke-width="1"/><path id="eoj8o5ssc5ra6" d="M783.305639,43.117403C784.556082,43.757394,785.789295,43.895238,786.951124,44.682919C787.898802,45.337678,788.819404,46.206589,789.287089,47.279804C789.552932,47.813950,789.730160,48.463786,790.111693,48.929010C791.034756,49.596077,792.147355,49.884073,792.994112,50.720984C794.333169,52.005888,794.754086,53.773247,794.685164,55.577528C794.707317,57.303041,793.680871,58.807019,792.573195,60.040232C791.999665,60.719606,791.261214,61.334982,791.123370,62.262968C790.958449,62.848806,790.948603,63.698024,790.552301,64.173094C789.973848,64.581703,789.136938,64.672779,788.462486,64.847546C788.282796,65.718917,788.218797,66.927515,787.591114,67.604428C786.734511,68.448723,785.186226,68.584106,784.314855,69.497323C783.768401,70.073315,783.224409,70.831458,783.079181,71.626523C783.234255,72.232052,783.645326,72.771121,783.817631,73.376651C783.842246,74.001873,783.593635,74.622171,783.586250,75.264623C783.581327,76.155687,783.571481,77.068904,783.697018,77.952584C783.790555,78.629497,783.537020,79.188258,783.369638,79.835633C782.943798,81.243612,783.148103,82.912511,783.113642,84.389412C783.093950,94.934488,783.150564,105.486948,783.086565,116.032024C780.211530,115.972948,777.334034,116.066485,774.459000,116.024640C774.257156,115.394495,774.067621,114.761889,773.875623,114.129283C773.550705,114.222820,773.208556,114.304049,772.903330,114.446817C772.548874,114.887425,772.361800,115.475725,772.132880,115.987717C771.478120,116.012332,770.823361,116.032024,770.168601,116.054178C769.996296,114.240050,770.001219,112.396385,770.153832,110.584719C772.644872,110.486259,775.182681,110.725025,777.646645,110.385338C777.649106,100.573790,777.641722,90.732704,777.654029,80.921155C777.649106,80.103937,777.380803,79.363024,777.262651,78.565498C777.230651,78.060890,777.575261,77.548897,777.604799,77.046751C777.530954,76.697218,777.353726,76.367376,777.220805,76.037535C777.358649,75.700309,777.550646,75.358160,777.619568,75.001242C777.575261,74.393251,776.871272,73.620340,777.247882,73.039425C777.457109,72.433896,778.143868,71.781597,777.740182,71.141607C777.457109,70.504078,777.023885,69.878856,776.526661,69.389017C775.679905,68.547183,774.215311,68.416724,773.393169,67.606890C772.733486,66.873362,772.627642,65.600765,772.435645,64.662933C771.837500,64.591549,770.867668,64.643241,770.434443,64.173094C769.764915,63.124494,770.015988,61.839590,769.100309,60.837758C767.886788,59.437163,766.695421,58.297488,766.350811,56.372593C766.114507,54.472313,766.503424,52.256961,767.825251,50.797290C768.662162,49.888996,769.740300,49.630538,770.700286,48.973317C771.310738,48.355480,771.505197,47.353649,772.022112,46.642275C773.036251,45.219526,774.559921,44.136465,776.233743,43.636780C777.213421,43.356169,778.084792,42.829408,779.044778,42.511874C779.800459,42.361722,780.605371,42.396183,781.373359,42.403568C782.111810,42.398645,782.655802,42.814639,783.305639,43.117403Z" transform="matrix(0.93969262078591 0.34202014332567 -0.34202014332567 0.93969262078591 -397.83215359500002 -9.77741172499987)" fill="rgb(251,201,40)" stroke="none" stroke-width="1"/><path id="eoj8o5ssc5ra7" d="M87.072631,589.730666C90.607349,589.772512,94.146989,589.728205,97.681706,589.750358C99.158608,589.838972,100.746277,589.907894,102.144410,590.387887C105.398516,591.507871,107.983093,594.158909,109.117846,597.395784C109.890758,599.827748,109.915373,602.498478,108.943079,604.881213C108.234166,606.567342,107.288950,608.130396,105.861278,609.304532C103.759155,611.172812,100.948120,611.990031,98.171545,611.999877C97.339557,612.012185,96.482955,611.943263,95.655890,612.046646C95.210358,612.238643,95.308818,612.765404,95.264511,613.161706C95.254665,619.325308,95.311279,625.479064,95.326049,631.642665C95.308818,633.040799,95.505738,634.426625,95.515584,635.822296C95.500815,639.930544,95.532815,644.048637,95.537738,648.154423C95.567276,649.308867,94.932208,650.069472,94.629443,651.115610C94.489138,651.918060,94.558060,652.767278,94.545752,653.577112C94.528522,656.934601,94.558060,660.292091,94.528522,663.649580C93.600535,663.716040,92.647934,663.880961,91.717486,663.821885C91.178417,663.782501,91.013496,663.366507,90.843653,662.920975C90.580272,662.290830,90.870729,661.677916,90.848576,660.976388C90.489197,660.282245,89.684285,659.506871,88.987680,659.152415C88.231999,658.938264,87.372935,658.975187,86.600023,659.071185C85.878803,659.255798,85.317580,659.959788,84.616052,660.235476C84.165597,660.282245,83.697912,660.233015,83.244995,660.208399C83.195765,657.633668,83.220380,655.056475,83.230226,652.484205C83.784064,652.454667,84.337902,652.432514,84.891740,652.417745C85.233889,652.826354,85.561269,653.326039,86.004339,653.626342C86.762482,653.778956,87.572316,653.737110,88.342767,653.729725C88.896605,653.685418,89.396289,653.754341,89.822129,653.326039C90.361198,652.789432,91.040573,652.146980,90.964266,651.317453C90.981497,650.377159,90.134740,649.594402,90.001819,648.634416C89.804899,647.027055,90.134740,645.321234,90.124894,643.699104C90.122433,636.068447,90.191355,628.437789,90.206124,620.807132C90.375967,617.828715,90.501504,614.805990,90.270123,611.830034C88.596301,611.793111,86.883096,611.950647,85.221582,611.738958C82.833924,611.300811,80.421652,610.237442,78.678909,608.519313C77.679539,607.576558,77.012471,606.198116,76.453710,604.962442C75.360803,602.557554,75.538032,599.598829,76.352789,597.139788C77.369389,594.318906,79.621664,591.736790,82.474545,590.690652C83.916985,590.131891,85.512039,589.664205,87.072631,589.730666Z" transform="matrix(-0.50000000000000 -0.86602540378444 0.86602540378444 -0.50000000000000 -264.74679134000007 972.27696961000083)" fill="rgb(251,201,40)" stroke="none" stroke-width="1"/><path id="eoj8o5ssc5ra8" d="M281.220720,590.490000C282.276705,590.694305,283.061924,591.797058,284.189292,591.957055C284.777591,592.104745,285.501273,592.141668,286.018188,592.471509C286.596641,593.017963,286.884637,593.862258,287.465552,594.423481C287.874161,594.839475,288.383692,595.186546,288.647073,595.705923C289.008914,596.291761,289.109835,596.971136,289.789210,597.254208C291.071653,597.884353,292.351634,598.344654,293.459310,599.289871C295.103593,600.577236,296.115271,602.649821,295.849429,604.751944C295.640201,606.317460,294.928827,607.971589,293.710383,609.017728C292.809473,609.775870,291.672259,610.310016,290.635967,610.868777C290.953500,612.148759,291.248881,613.409048,291.243958,614.738259C289.959054,614.972102,288.962145,614.428110,287.758471,614.154883C286.298800,613.820119,284.962204,615.368404,284.836667,616.707461C284.910512,617.864367,285.567733,619.004042,285.577579,620.156026C285.580041,621.128319,284.196677,621.797848,284.290214,622.836602C284.280368,627.097462,284.287752,631.395245,284.290214,635.661028C284.282829,637.566231,284.346828,639.422204,284.144985,641.322484C283.984988,642.664002,284.287752,643.919369,284.280368,645.260887C284.300060,650.676192,284.272983,656.091497,284.292675,661.504341C284.295137,662.439712,284.275445,663.375083,284.206523,664.310454C280.849034,664.290762,277.491544,664.322761,274.134055,664.280916C273.978981,663.473543,273.777138,662.722785,273.405451,661.981872C272.556232,662.572633,272.172238,663.387390,271.618400,664.209532C270.887334,664.389222,270.067654,664.295685,269.316895,664.303069C269.289819,662.205869,269.294742,660.108669,269.307049,658.013931C272.167315,657.858856,275.044811,657.967162,277.907538,657.947470C277.949384,646.910094,277.902615,635.870256,277.932153,624.832880C277.919846,623.976277,278.003537,623.070444,277.833693,622.231072C277.570313,621.490160,277.046013,620.823093,276.639865,620.153564C277.009090,619.048350,277.750002,617.746215,277.631850,616.562232C277.449699,615.523478,276.595558,614.282881,275.485420,614.117960C273.914982,614.041654,272.817152,615.161637,271.180253,614.617645C271.241790,613.372125,271.650400,612.161066,271.692245,610.925392C270.855334,610.194326,269.720582,609.854638,268.868902,609.116188C267.443692,607.951897,266.761856,606.196846,266.599397,604.399949C266.493552,602.332287,267.647997,600.328625,269.262742,599.092950C270.345803,598.228963,271.569170,597.793277,272.782691,597.177902C273.284837,596.946520,273.479296,596.365606,273.759907,595.920074C274.210362,595.056087,274.968505,594.593324,275.522343,593.810567C275.901414,593.335497,276.243563,592.670891,276.772786,592.353357C277.471852,592.060438,278.281687,592.028439,278.980753,591.735520C279.699512,591.393371,280.408425,590.733689,281.220720,590.490000Z" transform="matrix(0.50000000000000 0.86602540378444 -0.86602540378444 0.50000000000000 610.35208659500017 -53.76638839499964)" fill="rgb(251,201,40)" stroke="none" stroke-width="1"/><path id="eoj8o5ssc5ra9" d="M661.260059,592.452459C662.323428,593.619211,662.402196,595.118266,662.515425,596.612398C663.935712,597.003777,665.264923,597.377925,666.404598,598.367449C667.566427,599.288051,668.122727,600.809259,668.319647,602.232008C668.405800,603.886137,667.389199,605.488575,666.165833,606.532252C664.957235,607.652236,663.150492,608.129767,662.089585,609.338365C661.186213,610.372196,661.501286,611.836790,661.464363,613.097079C661.437287,614.015219,661.858204,614.817669,661.919741,615.708733C661.695744,616.690872,661.232982,617.609013,660.967140,618.581306C660.570838,619.784981,660.745605,620.904964,660.750528,622.145561C660.787450,636.313968,660.772681,650.506991,660.760374,664.677859C659.229319,664.867395,657.715495,664.808319,656.177056,664.808319C654.345699,664.800934,652.521725,664.835395,650.692829,664.766473C650.665753,663.444647,650.569754,662.100666,650.687906,660.781301C650.783905,660.109311,651.123592,659.722855,651.793121,659.587473C653.018949,659.353630,654.328468,659.491474,655.573988,659.449628C655.689679,658.583180,655.783216,657.721654,655.780754,656.847821C655.761062,645.606140,655.780754,634.364459,655.768447,623.122778C655.756139,621.980641,655.847215,620.801581,655.689679,619.669290C655.522297,618.517307,654.759231,617.577013,654.582003,616.471799C654.436774,615.376430,655.052150,614.273677,655.192455,613.158616C655.335223,611.920481,655.458298,610.647884,654.714924,609.564823C653.873090,608.265150,652.172192,607.807310,650.943902,606.928554C649.567923,605.993183,648.467631,604.398130,648.408555,602.699693C648.302711,601.114486,649.023931,599.492356,650.168529,598.409295C651.276205,597.387771,652.691569,597.023469,654.102010,596.627167C654.323545,595.076421,654.269392,593.562597,655.448452,592.368768C656.942584,590.697408,659.793003,590.800791,661.260059,592.452459Z" transform="matrix(0.17364817766693 -0.98480775301221 0.98480775301221 0.17364817766693 -447.71594342500043 1068.47217085000057)" fill="rgb(251,201,40)" stroke="none" stroke-width="1"/><path id="eoj8o5ssc5ra10" d="M1004.248181,590.629124C1006.436457,590.210669,1008.486888,591.013119,1010.692394,590.646355C1014.047422,590.112209,1017.557524,591.148501,1019.955028,593.578004C1021.756847,595.559513,1023.041751,597.979170,1023.026982,600.718822C1023.233749,603.874468,1020.767323,606.963653,1017.675676,607.542106C1016.245544,607.864563,1014.849872,607.537183,1013.412354,607.384570C1012.988976,608.351941,1012.474522,609.260235,1011.964991,610.183298C1011.297924,611.396819,1011.423461,612.728492,1011.846839,613.998627C1012.122527,614.791231,1012.671442,615.453375,1012.969284,616.226286C1012.656673,616.900738,1011.940376,617.479191,1011.777917,618.197950C1011.672072,619.418855,1011.770532,620.661914,1011.750840,621.887742C1011.740994,635.989688,1011.763148,650.089173,1011.738533,664.191120C1009.912098,664.392963,1008.014280,664.292042,1006.168153,664.309272C1004.223566,664.282196,1002.234673,664.412655,1000.304855,664.188658C1000.135011,662.736372,1000.078397,661.242240,1000.208856,659.785031C1000.314701,659.145040,1000.494390,658.359821,1001.252533,658.241669C1002.926355,658.091517,1004.632176,658.236746,1006.315843,658.175208C1006.628454,656.405388,1006.502918,654.687260,1006.520148,652.902670C1006.525071,641.515761,1006.512764,630.032853,1006.529994,618.663174C1006.613685,617.575190,1005.789082,617.198580,1005.269705,616.386284C1005.503548,615.566604,1006.131231,614.857691,1006.465995,614.070010C1006.761375,613.415251,1006.827836,612.723569,1006.827836,612.014656C1006.926296,610.335911,1005.830927,608.878702,1005.380472,607.187650C1003.814957,607.507645,1002.411901,607.899024,1000.802078,607.547029C998.786108,607.190112,997.112286,605.838747,996.181838,604.041850C995.312928,602.375413,995.300621,600.438211,995.704307,598.638853C996.560910,594.584758,1000.189164,591.291268,1004.248181,590.629124Z" transform="matrix(-0.93969262078591 0.34202014332567 -0.34202014332567 -0.93969262078591 1409.68633926000007 566.50527297000019)" fill="rgb(251,201,40)" stroke="none" stroke-width="1"/><path id="eoj8o5ssc5ra11" d="M461.680780,591.219501C462.827840,591.192424,463.994592,591.162886,465.136729,591.298269C466.815473,591.593649,468.001917,592.617634,469.274514,593.656388C470.064656,594.328378,470.997566,594.608990,471.984628,594.852678C473.444299,595.239134,474.881816,595.999738,475.910724,597.119722C476.937171,598.215090,477.466394,599.773221,477.530393,601.255046C477.525470,603.271016,476.464562,604.885762,475.093506,606.269126C472.833846,608.533708,469.599432,609.825997,466.549631,610.606293C467.251159,611.977350,467.561309,613.446867,467.182237,614.968075C466.869626,615.913292,466.155791,616.735434,466.062254,617.724958C465.973640,618.788327,466.042562,619.866465,466.032716,620.932295C466.037639,634.716708,466.030254,648.501121,466.037639,662.285533C466.035177,663.117521,466.022870,663.947047,465.993332,664.776574C463.982284,664.875034,461.995852,664.823342,459.977420,664.835650C458.431597,664.830727,456.930080,664.892264,455.389180,664.717498C455.381795,663.363671,455.293181,661.990153,455.416256,660.643711C455.485178,660.055412,455.723944,659.710802,456.319628,659.570496C457.476534,659.351423,458.717131,659.486805,459.893729,659.464652C459.984804,658.768047,460.063573,658.073903,460.066034,657.369913C460.043881,645.308552,460.061111,633.242268,460.056188,621.178445C460.041419,620.028924,460.132495,618.852326,459.987266,617.712650C459.810038,616.412977,458.726977,615.361915,458.606363,614.047473C458.488211,612.811799,458.970666,611.775507,459.391582,610.650600C457.705453,610.131223,456.048862,609.562616,454.478424,608.747859C452.553529,607.748489,450.658172,606.434047,449.516035,604.543613C448.873583,603.371938,448.381283,601.897498,448.590510,600.551056C448.888352,598.810774,449.764647,597.193567,451.231702,596.172044C452.403377,595.293287,453.727666,594.926523,455.113491,594.540068C456.464856,594.160996,457.247614,593.233010,458.367597,592.469944C459.359583,591.800415,460.454951,591.236731,461.680780,591.219501Z" transform="matrix(-0.50000000000000 0.86602540378444 -0.86602540378444 -0.50000000000000 1056.05319284500069 380.51960805499886)" fill="rgb(251,201,40)" stroke="none" stroke-width="1"/><path id="eoj8o5ssc5ra12" d="M838.136059,592.132863C838.972970,592.763008,839.489885,593.745147,840.329258,594.345754C841.365550,594.926668,842.613532,595.091589,843.639978,595.738964C845.212878,596.743257,846.347631,598.562307,846.278709,600.462587C846.384553,602.220100,845.392568,603.987458,844.068280,605.085288C842.111385,606.559728,839.708959,607.106182,837.308994,607.298179C837.784064,609.058153,837.601913,610.727052,837.626528,612.521487C837.628990,629.343393,837.616682,646.172685,837.631451,662.992130C837.624067,663.597659,837.601913,664.200727,837.567452,664.806257C833.887506,664.776719,830.207560,664.801334,826.527614,664.793949C826.547306,663.216126,826.357771,661.552151,826.630997,659.998943C827.170066,659.605103,827.938055,659.528796,828.585430,659.472181C829.693106,659.410644,830.803244,659.445105,831.910920,659.415567C831.974919,654.534408,831.891228,649.648326,831.957688,644.767167C831.908458,633.771636,831.945381,622.776105,831.930612,611.783036C831.930612,610.958433,831.898612,610.128907,831.952765,609.306765C831.979842,608.575699,832.464758,607.987400,832.774907,607.340025C831.216776,607.175104,829.722644,607.061875,828.235897,606.515421C826.630997,605.929584,825.097482,605.173902,824.152265,603.682232C823.081511,602.180716,823.061819,600.132746,823.608273,598.434309C824.021805,597.164174,825.008867,596.263264,826.195312,595.706965C827.194681,595.194972,828.351588,595.007898,829.318958,594.456522C830.480787,593.503920,831.115855,591.906405,832.720754,591.451027C834.419191,590.995649,836.715772,590.907035,838.136059,592.132863Z" transform="matrix(-0.17364817766693 0.98480775301221 -0.98480775301221 -0.17364817766693 1055.70728970500113 -309.54232779500120)" fill="rgb(251,201,40)" stroke="none" stroke-width="1"/></g><g id="eoj8o5ssc5ra13" transform="matrix(1 0 0 1 0.00332335500042 -376.40441615999953)"><path id="eoj8o5ssc5ra14" d="M97.819007,41.880883C99.699595,42.252570,101.388186,43.224863,102.746935,44.563920C103.662614,45.472215,104.206606,46.698043,104.789982,47.832795C105.550586,47.429109,106.412112,46.853117,107.281022,46.781734C108.004704,46.712812,108.657002,47.219881,108.804692,47.923871C108.935152,48.763243,108.853922,49.646923,108.841615,50.493679C109.880369,50.729984,110.879739,50.926904,111.852032,51.387205C113.264934,52.019811,114.466147,53.142256,115.312904,54.427160C116.671653,56.499745,116.895650,59.197551,115.962741,61.486749C115.207060,63.463335,113.587391,65.031312,111.667419,65.880530C110.591743,66.353139,109.503759,66.454060,108.361622,66.665749C108.415775,67.514968,108.590541,68.420801,108.452697,69.262634C108.383775,70.030623,107.532095,70.562307,106.805952,70.387541C106.001041,70.193082,105.215822,69.722935,104.477371,69.348787C104.002301,70.291542,103.519847,71.217067,102.865087,72.049055C102.513092,72.553663,101.986331,73.112424,101.981408,73.757337C101.929716,74.724708,101.932178,75.753616,101.988792,76.720986C102.020792,77.656357,102.860164,78.512960,102.968470,79.408947C102.874933,80.159705,102.380171,80.834157,102.262019,81.572607C102.458939,82.328288,103.199851,83.271044,102.909394,84.048879C102.547553,84.954711,101.939562,85.742392,101.567875,86.648225C101.043575,87.696825,101.220804,88.856192,101.196189,89.998330C101.218342,97.628987,101.188804,105.262105,101.213419,112.895224C101.218342,113.759211,101.102651,114.610891,100.967269,115.462571C96.255953,115.504416,91.534792,115.479801,86.821015,115.487186C85.765031,115.553646,84.888736,114.896425,84.765661,113.837979C84.669662,112.309386,84.342282,110.517413,84.800122,109.045434C85.097964,108.161755,85.971797,107.733454,86.828400,107.553764C87.763771,107.322383,88.979753,107.329767,89.708357,106.635623C90.402501,106.020248,90.720035,105.207952,90.700343,104.284889C90.707727,99.022197,90.688035,93.766890,90.705266,88.501736C90.742188,87.332523,90.144043,86.490689,89.560667,85.538087C89.186519,84.927635,88.590835,84.359028,88.622835,83.595962C88.551451,82.788589,89.312055,82.173214,89.629589,81.464301C89.252979,80.770157,88.558836,80.265550,88.620373,79.416331C88.541605,78.421884,89.772356,77.715433,89.860970,76.720986C89.937277,75.832384,89.942200,74.872398,89.858509,73.981334C89.777279,73.151808,89.171750,72.536432,88.708987,71.889057C88.105919,71.111223,87.653003,70.247235,87.219779,69.368479C86.370560,69.789396,85.351498,70.414617,84.389051,70.404771C83.928750,70.365387,83.237068,70.038008,83.259221,69.489092C83.145992,68.529107,83.244452,67.524814,83.288759,66.557443C81.910318,66.195602,80.605722,65.772224,79.463585,64.883622C77.543613,63.448566,76.325169,61.151984,76.347323,58.739712C76.280862,56.932969,77.021775,55.094227,78.060529,53.641941C79.468508,51.830275,81.435248,51.111516,83.557063,50.478910C83.520141,49.587847,83.421681,48.657399,83.527525,47.768796C83.515218,47.224804,84.187208,46.904809,84.640124,46.813733C85.602572,46.670966,86.665941,47.389725,87.497928,47.813103C88.241302,46.222973,89.065905,44.760841,90.478808,43.663011C92.482470,42.097495,95.313198,41.253200,97.819007,41.880883Z" transform="matrix(0.17364817766693 0.98480775301221 -0.98480775301221 0.17364817766693 340.69665441000012 500.00415988000100)" fill="rgb(251,201,40)" stroke="none" stroke-width="1"/><path id="eoj8o5ssc5ra15" d="M322.833590,41.583120C326.033543,41.575735,329.233496,41.590504,332.433449,41.575735C334.203269,41.553582,336.014935,41.792347,337.634603,42.535721C339.517653,43.436631,341.240704,44.450770,342.441917,46.213205C345.028956,49.585463,345.376028,54.464161,343.254213,58.153953C341.868387,60.694223,339.478269,62.540350,336.746001,63.433875C334.789107,63.977867,332.812520,63.945868,330.818704,63.950791C330.767012,79.170259,330.811319,94.394651,330.796550,109.616581C330.774396,111.571014,330.904856,113.422064,330.639014,115.361728C327.549829,115.467572,324.450797,115.376497,321.356689,115.423265C320.305627,115.447880,319.316103,115.351882,318.287195,115.142654C318.274888,114.514971,318.368425,113.818366,318.205966,113.205452C317.711204,112.678690,316.768448,112.499000,316.256456,113.089761C315.808463,113.739598,315.653388,114.630661,315.426930,115.378958C314.430021,115.406035,313.433113,115.406035,312.436204,115.393727C312.450973,112.806688,312.271284,110.175342,312.559280,107.600611C316.032459,107.479997,319.513024,107.588303,322.988665,107.543996C323.015741,95.189716,322.993588,82.832975,322.998511,70.478695C322.991126,68.307650,323.028049,66.134143,322.978819,63.963098C320.591162,63.933560,318.351194,63.776024,316.221995,62.584657C313.177117,60.940374,311.234991,57.846265,310.533463,54.518314C310.073162,52.172502,310.641769,49.937458,311.623909,47.810720C312.655278,45.575676,314.572788,43.754165,316.783218,42.703103C318.614575,41.804655,320.820081,41.588043,322.833590,41.583120Z" transform="matrix(-0.86602540378444 -0.50000000000000 0.50000000000000 -0.86602540378444 460.58083481499915 667.26831733999961)" fill="rgb(251,201,40)" stroke="none" stroke-width="1"/><path id="eoj8o5ssc5ra16" d="M546.168688,43.788462C547.480669,44.901061,548.241273,46.592113,548.832034,48.169936C549.548331,47.721942,550.304012,47.168104,551.121231,46.936723C551.746452,46.821033,552.487365,46.848109,552.829513,47.480715C553.336583,48.391471,552.977204,49.764989,552.863974,50.754513C554.067649,51.084355,555.227017,51.436349,556.275617,52.132955C558.018360,53.206170,559.241727,55.079373,559.758642,57.038729C560.647245,60.307604,559.081729,64.017088,556.295309,65.870599C555.222094,66.586896,554.033188,66.906891,552.822129,67.295809C552.959973,68.145027,553.179047,69.097628,553.051049,69.951770C552.925512,70.544992,552.575979,71.079138,551.916296,71.111137C550.796312,71.271135,549.846173,70.564684,548.918186,70.050230C548.307734,71.465593,547.684974,72.780036,546.515760,73.831097C545.430237,74.855082,544.123180,75.381844,542.899813,76.174447C542.429666,76.423059,542.594587,76.871052,542.535511,77.319046C542.565049,89.225332,542.537972,101.134081,542.550280,113.040367C542.552741,113.813279,542.535511,114.588652,542.518280,115.361564C539.448787,115.329564,536.374371,115.457562,533.307339,115.341872C533.048881,114.573883,532.741193,113.850201,532.339968,113.146212C531.682747,113.805894,531.266753,114.517268,530.907374,115.364025C530.220615,115.368948,529.533856,115.368948,528.849558,115.368948C528.642792,113.429284,528.770790,111.433006,528.753560,109.483496C531.382444,109.404728,534.016251,109.527803,536.640213,109.397344C536.723904,108.644124,536.812518,107.893366,536.819902,107.132762C536.814979,97.697823,536.810056,88.255501,536.822364,78.820562C536.824826,77.934421,536.728827,77.058127,536.630367,76.179370C535.020544,75.443381,533.519028,74.722161,532.362122,73.331412C531.456289,72.329581,531.099371,71.138214,530.451996,69.996077C530.387997,69.870540,530.287075,69.831156,530.154154,69.880386C529.334474,70.303764,528.453256,71.197290,527.471117,71.128368C526.863126,71.130829,526.545592,70.655759,526.338826,70.148690C526.117291,69.292087,526.464362,68.238564,526.488977,67.362269C525.664374,66.855200,524.650235,66.673049,523.783786,66.225055C522.279808,65.523527,521.137671,64.194316,520.278607,62.806028C519.313698,61.154360,519.207854,59.305772,519.454004,57.447338C519.788768,55.896592,520.775831,54.461536,521.829354,53.304630C523.133950,51.896650,524.768387,51.288659,526.523438,50.648669C526.378210,49.806835,526.176367,48.876387,526.296980,48.024707C526.385594,47.500407,526.823742,46.934262,527.392349,46.912108C528.455718,46.774264,529.585547,47.561945,530.461842,48.098552C530.823683,47.131182,531.195370,46.198273,531.791053,45.346593C532.950421,43.594003,534.954084,42.397713,536.957747,41.873413C540.044470,41.080809,543.707186,41.683877,546.168688,43.788462Z" transform="matrix(0.76604444311898 0.64278760968654 -0.64278760968654 0.76604444311898 -159.61950936500043 -18.72095436500058)" fill="rgb(251,201,40)" stroke="none" stroke-width="1"/><path id="eoj8o5ssc5ra17" d="M783.305639,43.117403C784.556082,43.757394,785.789295,43.895238,786.951124,44.682919C787.898802,45.337678,788.819404,46.206589,789.287089,47.279804C789.552932,47.813950,789.730160,48.463786,790.111693,48.929010C791.034756,49.596077,792.147355,49.884073,792.994112,50.720984C794.333169,52.005888,794.754086,53.773247,794.685164,55.577528C794.707317,57.303041,793.680871,58.807019,792.573195,60.040232C791.999665,60.719606,791.261214,61.334982,791.123370,62.262968C790.958449,62.848806,790.948603,63.698024,790.552301,64.173094C789.973848,64.581703,789.136938,64.672779,788.462486,64.847546C788.282796,65.718917,788.218797,66.927515,787.591114,67.604428C786.734511,68.448723,785.186226,68.584106,784.314855,69.497323C783.768401,70.073315,783.224409,70.831458,783.079181,71.626523C783.234255,72.232052,783.645326,72.771121,783.817631,73.376651C783.842246,74.001873,783.593635,74.622171,783.586250,75.264623C783.581327,76.155687,783.571481,77.068904,783.697018,77.952584C783.790555,78.629497,783.537020,79.188258,783.369638,79.835633C782.943798,81.243612,783.148103,82.912511,783.113642,84.389412C783.093950,94.934488,783.150564,105.486948,783.086565,116.032024C780.211530,115.972948,777.334034,116.066485,774.459000,116.024640C774.257156,115.394495,774.067621,114.761889,773.875623,114.129283C773.550705,114.222820,773.208556,114.304049,772.903330,114.446817C772.548874,114.887425,772.361800,115.475725,772.132880,115.987717C771.478120,116.012332,770.823361,116.032024,770.168601,116.054178C769.996296,114.240050,770.001219,112.396385,770.153832,110.584719C772.644872,110.486259,775.182681,110.725025,777.646645,110.385338C777.649106,100.573790,777.641722,90.732704,777.654029,80.921155C777.649106,80.103937,777.380803,79.363024,777.262651,78.565498C777.230651,78.060890,777.575261,77.548897,777.604799,77.046751C777.530954,76.697218,777.353726,76.367376,777.220805,76.037535C777.358649,75.700309,777.550646,75.358160,777.619568,75.001242C777.575261,74.393251,776.871272,73.620340,777.247882,73.039425C777.457109,72.433896,778.143868,71.781597,777.740182,71.141607C777.457109,70.504078,777.023885,69.878856,776.526661,69.389017C775.679905,68.547183,774.215311,68.416724,773.393169,67.606890C772.733486,66.873362,772.627642,65.600765,772.435645,64.662933C771.837500,64.591549,770.867668,64.643241,770.434443,64.173094C769.764915,63.124494,770.015988,61.839590,769.100309,60.837758C767.886788,59.437163,766.695421,58.297488,766.350811,56.372593C766.114507,54.472313,766.503424,52.256961,767.825251,50.797290C768.662162,49.888996,769.740300,49.630538,770.700286,48.973317C771.310738,48.355480,771.505197,47.353649,772.022112,46.642275C773.036251,45.219526,774.559921,44.136465,776.233743,43.636780C777.213421,43.356169,778.084792,42.829408,779.044778,42.511874C779.800459,42.361722,780.605371,42.396183,781.373359,42.403568C782.111810,42.398645,782.655802,42.814639,783.305639,43.117403Z" transform="matrix(0.93969262078591 0.34202014332567 -0.34202014332567 0.93969262078591 -397.83215359500002 -9.77741172499987)" fill="rgb(251,201,40)" stroke="none" stroke-width="1"/><path id="eoj8o5ssc5ra18" d="M87.072631,589.730666C90.607349,589.772512,94.146989,589.728205,97.681706,589.750358C99.158608,589.838972,100.746277,589.907894,102.144410,590.387887C105.398516,591.507871,107.983093,594.158909,109.117846,597.395784C109.890758,599.827748,109.915373,602.498478,108.943079,604.881213C108.234166,606.567342,107.288950,608.130396,105.861278,609.304532C103.759155,611.172812,100.948120,611.990031,98.171545,611.999877C97.339557,612.012185,96.482955,611.943263,95.655890,612.046646C95.210358,612.238643,95.308818,612.765404,95.264511,613.161706C95.254665,619.325308,95.311279,625.479064,95.326049,631.642665C95.308818,633.040799,95.505738,634.426625,95.515584,635.822296C95.500815,639.930544,95.532815,644.048637,95.537738,648.154423C95.567276,649.308867,94.932208,650.069472,94.629443,651.115610C94.489138,651.918060,94.558060,652.767278,94.545752,653.577112C94.528522,656.934601,94.558060,660.292091,94.528522,663.649580C93.600535,663.716040,92.647934,663.880961,91.717486,663.821885C91.178417,663.782501,91.013496,663.366507,90.843653,662.920975C90.580272,662.290830,90.870729,661.677916,90.848576,660.976388C90.489197,660.282245,89.684285,659.506871,88.987680,659.152415C88.231999,658.938264,87.372935,658.975187,86.600023,659.071185C85.878803,659.255798,85.317580,659.959788,84.616052,660.235476C84.165597,660.282245,83.697912,660.233015,83.244995,660.208399C83.195765,657.633668,83.220380,655.056475,83.230226,652.484205C83.784064,652.454667,84.337902,652.432514,84.891740,652.417745C85.233889,652.826354,85.561269,653.326039,86.004339,653.626342C86.762482,653.778956,87.572316,653.737110,88.342767,653.729725C88.896605,653.685418,89.396289,653.754341,89.822129,653.326039C90.361198,652.789432,91.040573,652.146980,90.964266,651.317453C90.981497,650.377159,90.134740,649.594402,90.001819,648.634416C89.804899,647.027055,90.134740,645.321234,90.124894,643.699104C90.122433,636.068447,90.191355,628.437789,90.206124,620.807132C90.375967,617.828715,90.501504,614.805990,90.270123,611.830034C88.596301,611.793111,86.883096,611.950647,85.221582,611.738958C82.833924,611.300811,80.421652,610.237442,78.678909,608.519313C77.679539,607.576558,77.012471,606.198116,76.453710,604.962442C75.360803,602.557554,75.538032,599.598829,76.352789,597.139788C77.369389,594.318906,79.621664,591.736790,82.474545,590.690652C83.916985,590.131891,85.512039,589.664205,87.072631,589.730666Z" transform="matrix(-0.50000000000000 -0.86602540378444 0.86602540378444 -0.50000000000000 -264.74679134000007 972.27696961000083)" fill="rgb(251,201,40)" stroke="none" stroke-width="1"/><path id="eoj8o5ssc5ra19" d="M281.220720,590.490000C282.276705,590.694305,283.061924,591.797058,284.189292,591.957055C284.777591,592.104745,285.501273,592.141668,286.018188,592.471509C286.596641,593.017963,286.884637,593.862258,287.465552,594.423481C287.874161,594.839475,288.383692,595.186546,288.647073,595.705923C289.008914,596.291761,289.109835,596.971136,289.789210,597.254208C291.071653,597.884353,292.351634,598.344654,293.459310,599.289871C295.103593,600.577236,296.115271,602.649821,295.849429,604.751944C295.640201,606.317460,294.928827,607.971589,293.710383,609.017728C292.809473,609.775870,291.672259,610.310016,290.635967,610.868777C290.953500,612.148759,291.248881,613.409048,291.243958,614.738259C289.959054,614.972102,288.962145,614.428110,287.758471,614.154883C286.298800,613.820119,284.962204,615.368404,284.836667,616.707461C284.910512,617.864367,285.567733,619.004042,285.577579,620.156026C285.580041,621.128319,284.196677,621.797848,284.290214,622.836602C284.280368,627.097462,284.287752,631.395245,284.290214,635.661028C284.282829,637.566231,284.346828,639.422204,284.144985,641.322484C283.984988,642.664002,284.287752,643.919369,284.280368,645.260887C284.300060,650.676192,284.272983,656.091497,284.292675,661.504341C284.295137,662.439712,284.275445,663.375083,284.206523,664.310454C280.849034,664.290762,277.491544,664.322761,274.134055,664.280916C273.978981,663.473543,273.777138,662.722785,273.405451,661.981872C272.556232,662.572633,272.172238,663.387390,271.618400,664.209532C270.887334,664.389222,270.067654,664.295685,269.316895,664.303069C269.289819,662.205869,269.294742,660.108669,269.307049,658.013931C272.167315,657.858856,275.044811,657.967162,277.907538,657.947470C277.949384,646.910094,277.902615,635.870256,277.932153,624.832880C277.919846,623.976277,278.003537,623.070444,277.833693,622.231072C277.570313,621.490160,277.046013,620.823093,276.639865,620.153564C277.009090,619.048350,277.750002,617.746215,277.631850,616.562232C277.449699,615.523478,276.595558,614.282881,275.485420,614.117960C273.914982,614.041654,272.817152,615.161637,271.180253,614.617645C271.241790,613.372125,271.650400,612.161066,271.692245,610.925392C270.855334,610.194326,269.720582,609.854638,268.868902,609.116188C267.443692,607.951897,266.761856,606.196846,266.599397,604.399949C266.493552,602.332287,267.647997,600.328625,269.262742,599.092950C270.345803,598.228963,271.569170,597.793277,272.782691,597.177902C273.284837,596.946520,273.479296,596.365606,273.759907,595.920074C274.210362,595.056087,274.968505,594.593324,275.522343,593.810567C275.901414,593.335497,276.243563,592.670891,276.772786,592.353357C277.471852,592.060438,278.281687,592.028439,278.980753,591.735520C279.699512,591.393371,280.408425,590.733689,281.220720,590.490000Z" transform="matrix(0.50000000000000 0.86602540378444 -0.86602540378444 0.50000000000000 610.35208659500017 -53.76638839499964)" fill="rgb(251,201,40)" stroke="none" stroke-width="1"/><path id="eoj8o5ssc5ra20" d="M661.260059,592.452459C662.323428,593.619211,662.402196,595.118266,662.515425,596.612398C663.935712,597.003777,665.264923,597.377925,666.404598,598.367449C667.566427,599.288051,668.122727,600.809259,668.319647,602.232008C668.405800,603.886137,667.389199,605.488575,666.165833,606.532252C664.957235,607.652236,663.150492,608.129767,662.089585,609.338365C661.186213,610.372196,661.501286,611.836790,661.464363,613.097079C661.437287,614.015219,661.858204,614.817669,661.919741,615.708733C661.695744,616.690872,661.232982,617.609013,660.967140,618.581306C660.570838,619.784981,660.745605,620.904964,660.750528,622.145561C660.787450,636.313968,660.772681,650.506991,660.760374,664.677859C659.229319,664.867395,657.715495,664.808319,656.177056,664.808319C654.345699,664.800934,652.521725,664.835395,650.692829,664.766473C650.665753,663.444647,650.569754,662.100666,650.687906,660.781301C650.783905,660.109311,651.123592,659.722855,651.793121,659.587473C653.018949,659.353630,654.328468,659.491474,655.573988,659.449628C655.689679,658.583180,655.783216,657.721654,655.780754,656.847821C655.761062,645.606140,655.780754,634.364459,655.768447,623.122778C655.756139,621.980641,655.847215,620.801581,655.689679,619.669290C655.522297,618.517307,654.759231,617.577013,654.582003,616.471799C654.436774,615.376430,655.052150,614.273677,655.192455,613.158616C655.335223,611.920481,655.458298,610.647884,654.714924,609.564823C653.873090,608.265150,652.172192,607.807310,650.943902,606.928554C649.567923,605.993183,648.467631,604.398130,648.408555,602.699693C648.302711,601.114486,649.023931,599.492356,650.168529,598.409295C651.276205,597.387771,652.691569,597.023469,654.102010,596.627167C654.323545,595.076421,654.269392,593.562597,655.448452,592.368768C656.942584,590.697408,659.793003,590.800791,661.260059,592.452459Z" transform="matrix(0.17364817766693 -0.98480775301221 0.98480775301221 0.17364817766693 -447.71594342500043 1068.47217085000057)" fill="rgb(251,201,40)" stroke="none" stroke-width="1"/><path id="eoj8o5ssc5ra21" d="M1004.248181,590.629124C1006.436457,590.210669,1008.486888,591.013119,1010.692394,590.646355C1014.047422,590.112209,1017.557524,591.148501,1019.955028,593.578004C1021.756847,595.559513,1023.041751,597.979170,1023.026982,600.718822C1023.233749,603.874468,1020.767323,606.963653,1017.675676,607.542106C1016.245544,607.864563,1014.849872,607.537183,1013.412354,607.384570C1012.988976,608.351941,1012.474522,609.260235,1011.964991,610.183298C1011.297924,611.396819,1011.423461,612.728492,1011.846839,613.998627C1012.122527,614.791231,1012.671442,615.453375,1012.969284,616.226286C1012.656673,616.900738,1011.940376,617.479191,1011.777917,618.197950C1011.672072,619.418855,1011.770532,620.661914,1011.750840,621.887742C1011.740994,635.989688,1011.763148,650.089173,1011.738533,664.191120C1009.912098,664.392963,1008.014280,664.292042,1006.168153,664.309272C1004.223566,664.282196,1002.234673,664.412655,1000.304855,664.188658C1000.135011,662.736372,1000.078397,661.242240,1000.208856,659.785031C1000.314701,659.145040,1000.494390,658.359821,1001.252533,658.241669C1002.926355,658.091517,1004.632176,658.236746,1006.315843,658.175208C1006.628454,656.405388,1006.502918,654.687260,1006.520148,652.902670C1006.525071,641.515761,1006.512764,630.032853,1006.529994,618.663174C1006.613685,617.575190,1005.789082,617.198580,1005.269705,616.386284C1005.503548,615.566604,1006.131231,614.857691,1006.465995,614.070010C1006.761375,613.415251,1006.827836,612.723569,1006.827836,612.014656C1006.926296,610.335911,1005.830927,608.878702,1005.380472,607.187650C1003.814957,607.507645,1002.411901,607.899024,1000.802078,607.547029C998.786108,607.190112,997.112286,605.838747,996.181838,604.041850C995.312928,602.375413,995.300621,600.438211,995.704307,598.638853C996.560910,594.584758,1000.189164,591.291268,1004.248181,590.629124Z" transform="matrix(-0.93969262078591 0.34202014332567 -0.34202014332567 -0.93969262078591 1409.68633926000007 566.50527297000019)" fill="rgb(251,201,40)" stroke="none" stroke-width="1"/><path id="eoj8o5ssc5ra22" d="M461.680780,591.219501C462.827840,591.192424,463.994592,591.162886,465.136729,591.298269C466.815473,591.593649,468.001917,592.617634,469.274514,593.656388C470.064656,594.328378,470.997566,594.608990,471.984628,594.852678C473.444299,595.239134,474.881816,595.999738,475.910724,597.119722C476.937171,598.215090,477.466394,599.773221,477.530393,601.255046C477.525470,603.271016,476.464562,604.885762,475.093506,606.269126C472.833846,608.533708,469.599432,609.825997,466.549631,610.606293C467.251159,611.977350,467.561309,613.446867,467.182237,614.968075C466.869626,615.913292,466.155791,616.735434,466.062254,617.724958C465.973640,618.788327,466.042562,619.866465,466.032716,620.932295C466.037639,634.716708,466.030254,648.501121,466.037639,662.285533C466.035177,663.117521,466.022870,663.947047,465.993332,664.776574C463.982284,664.875034,461.995852,664.823342,459.977420,664.835650C458.431597,664.830727,456.930080,664.892264,455.389180,664.717498C455.381795,663.363671,455.293181,661.990153,455.416256,660.643711C455.485178,660.055412,455.723944,659.710802,456.319628,659.570496C457.476534,659.351423,458.717131,659.486805,459.893729,659.464652C459.984804,658.768047,460.063573,658.073903,460.066034,657.369913C460.043881,645.308552,460.061111,633.242268,460.056188,621.178445C460.041419,620.028924,460.132495,618.852326,459.987266,617.712650C459.810038,616.412977,458.726977,615.361915,458.606363,614.047473C458.488211,612.811799,458.970666,611.775507,459.391582,610.650600C457.705453,610.131223,456.048862,609.562616,454.478424,608.747859C452.553529,607.748489,450.658172,606.434047,449.516035,604.543613C448.873583,603.371938,448.381283,601.897498,448.590510,600.551056C448.888352,598.810774,449.764647,597.193567,451.231702,596.172044C452.403377,595.293287,453.727666,594.926523,455.113491,594.540068C456.464856,594.160996,457.247614,593.233010,458.367597,592.469944C459.359583,591.800415,460.454951,591.236731,461.680780,591.219501Z" transform="matrix(-0.50000000000000 0.86602540378444 -0.86602540378444 -0.50000000000000 1056.05319284500069 380.51960805499886)" fill="rgb(251,201,40)" stroke="none" stroke-width="1"/><path id="eoj8o5ssc5ra23" d="M838.136059,592.132863C838.972970,592.763008,839.489885,593.745147,840.329258,594.345754C841.365550,594.926668,842.613532,595.091589,843.639978,595.738964C845.212878,596.743257,846.347631,598.562307,846.278709,600.462587C846.384553,602.220100,845.392568,603.987458,844.068280,605.085288C842.111385,606.559728,839.708959,607.106182,837.308994,607.298179C837.784064,609.058153,837.601913,610.727052,837.626528,612.521487C837.628990,629.343393,837.616682,646.172685,837.631451,662.992130C837.624067,663.597659,837.601913,664.200727,837.567452,664.806257C833.887506,664.776719,830.207560,664.801334,826.527614,664.793949C826.547306,663.216126,826.357771,661.552151,826.630997,659.998943C827.170066,659.605103,827.938055,659.528796,828.585430,659.472181C829.693106,659.410644,830.803244,659.445105,831.910920,659.415567C831.974919,654.534408,831.891228,649.648326,831.957688,644.767167C831.908458,633.771636,831.945381,622.776105,831.930612,611.783036C831.930612,610.958433,831.898612,610.128907,831.952765,609.306765C831.979842,608.575699,832.464758,607.987400,832.774907,607.340025C831.216776,607.175104,829.722644,607.061875,828.235897,606.515421C826.630997,605.929584,825.097482,605.173902,824.152265,603.682232C823.081511,602.180716,823.061819,600.132746,823.608273,598.434309C824.021805,597.164174,825.008867,596.263264,826.195312,595.706965C827.194681,595.194972,828.351588,595.007898,829.318958,594.456522C830.480787,593.503920,831.115855,591.906405,832.720754,591.451027C834.419191,590.995649,836.715772,590.907035,838.136059,592.132863Z" transform="matrix(-0.17364817766693 0.98480775301221 -0.98480775301221 -0.17364817766693 1055.70728970500113 -309.54232779500120)" fill="rgb(251,201,40)" stroke="none" stroke-width="1"/></g><rect id="eoj8o5ssc5ra24" width="170.387713" height="272.764681" rx="0" ry="0" transform="matrix(1 0 0 1.14599730030118 164.05001867999999 -44.16510414926654)" fill="rgb(48,90,112)" stroke="none" stroke-width="1"/><rect id="eoj8o5ssc5ra25" width="170.387713" height="272.764681" rx="0" ry="0" transform="matrix(1.53595006376317 0 0 0.54608582850590 130.87003979592865 481.53841883613984)" fill="rgb(48,90,112)" stroke="none" stroke-width="1"/><g id="eoj8o5ssc5ra26"><path id="eoj8o5ssc5ra27" d="M76.175700,0.238428C82.575700,0.568428,88.705700,3.728430,93.255700,8.138430C96.915700,11.798400,99.865700,16.268400,103.166000,20.268400C114.776000,34.248400,94.035700,48.558400,87.875700,37.488400C83.905700,30.518400,77.145700,25.438400,69.115700,24.348400C61.555700,23.318400,53.895700,26.468400,48.365700,31.518400C42.115700,37.148400,39.305700,46.428400,41.525700,54.558400C43.105700,61.608400,46.875700,67.808400,50.215700,74.138400C55.715700,84.218400,59.905700,94.898400,65.425700,104.968000C73.035700,118.968000,79.405700,133.558000,86.715700,147.698000C89.475700,153.078000,89.175700,158.418000,89.265700,164.288000C89.215700,171.618000,89.785700,178.958000,90.175700,186.298000C90.595700,194.308000,93.425700,201.928000,95.235700,209.948000C100.566000,235.768000,107.016000,261.358000,113.316000,286.948000C116.186000,301.058000,111.096000,316.568000,111.166000,331.268000C111.316000,343.748000,108.326000,355.808000,108.186000,368.268000C108.356000,380.408000,105.676000,392.188000,105.216000,404.268000C105.136000,416.068000,103.366000,427.558000,102.166000,439.308000C101.166000,451.408000,90.925700,461.368000,79.695700,464.668000C62.165700,469.528000,42.565700,454.238000,42.075700,436.318000C41.075700,421.248000,44.955700,407.308000,45.125700,392.278000C45.225700,379.478000,48.305700,367.068000,48.155700,354.278000C48.135700,341.808000,50.935700,329.748000,51.125700,317.288000C51.195700,310.268000,52.275700,303.268000,51.985700,296.268000C51.665700,289.018000,49.385700,282.538000,47.705700,275.528000C43.215700,258.008000,39.885700,240.188000,35.535700,222.648000C34.255700,217.368000,29.695700,216.238000,25.585700,213.658000C13.555700,206.578000,6.355720,194.558000,3.795720,181.018000C1.365720,164.528000,-0.364281,147.968000,0.065719,131.278000C-0.384281,117.768000,1.985720,104.738000,3.715720,91.408400C5.705720,80.728400,8.295720,70.218400,11.445700,59.818400C14.955700,46.568400,19.735700,33.908400,27.285700,22.408400C33.485700,13.998400,42.485700,7.228430,52.055700,3.108430C59.695700,-0.381572,67.935700,-0.211572,76.175700,0.238428Z" transform="matrix(1 0 0 1 32.87430000000000 128.72200000000001)" fill="rgb(9,9,9)" stroke="none" stroke-width="1"/><path id="eoj8o5ssc5ra28" d="M10.432200,0.006372C16.832200,0.336372,22.962200,3.496370,27.512200,7.906370C31.172200,11.566300,34.122200,16.036300,37.422500,20.036300C49.032500,34.016300,59.392500,48.896300,71.472500,62.486300C87.532500,53.786300,103.713000,45.326300,119.523000,36.186300C125.923000,32.576300,131.623000,28.976300,139.303000,29.206300C147.603000,29.376300,154.813000,35.476300,160.693000,40.756300C165.773000,45.286300,168.463000,51.886300,166.993000,58.666300C165.213000,67.266300,157.613000,73.526300,148.973000,74.306300C144.593000,74.486300,139.983000,72.276300,135.653000,72.676300C132.823000,73.136300,130.063000,74.826300,127.603000,76.226300C120.443000,80.496300,113.213000,84.686300,105.813000,88.516300C95.792500,93.646300,85.552500,96.466300,74.902500,99.845900C68.542500,101.936000,62.222500,103.956000,55.702500,105.526000C50.572500,93.946300,44.992500,82.556300,39.022500,71.396300C33.202200,60.146300,28.292200,48.326300,22.132200,37.256300C18.162200,30.286300,11.402200,25.206300,3.372220,24.116300C-4.187780,23.086300,2.192220,-0.443628,10.432200,0.006372Z" transform="matrix(1 0 0 1 98.61780000000000 128.95400000000001)" fill="rgb(9,9,9)" stroke="none" stroke-width="1"/><g id="eoj8o5ssc5ra29"><path id="eoj8o5ssc5ra30" d="M5.463860,0.046316C33.433900,0.006316,61.613900,0.056316,89.613900,0.016316C91.783900,-0.153684,94.033900,1.016320,94.983900,2.986320C95.563900,5.916320,94.403900,9.356320,94.163900,12.336300C90.993900,43.056300,87.953900,74.436300,84.763900,105.216000C84.413900,108.086000,82.653900,110.986000,79.433900,110.856000C57.893900,110.846000,36.153900,110.876000,14.633900,110.836000C12.743900,110.966000,11.573900,109.666000,10.463900,108.336000C8.863860,105.216000,9.263860,100.946000,8.873860,97.496300C5.803860,70.806300,3.473860,43.636300,0.643864,16.886300C-0.216136,12.506300,-0.106136,7.906320,0.343864,3.486320C0.963864,1.156320,3.173860,-0.003684,5.463860,0.046316Z" transform="matrix(-1.42810629700924 0.28743800649631 -0.26262204484179 -1.30480597101144 332.25999999999999 255.72600000000000)" fill="rgb(1,1,1)" stroke="none" stroke-width="1"/><path id="eoj8o5ssc5ra31" d="M8.130000,0.117276C10.050000,0.027275,12.100000,1.787280,11.910000,3.797280C12.170000,10.027300,11.690000,16.167300,12.780000,22.357300C16.350000,20.067300,20.180000,18.427300,24.100000,16.867300C24.040000,12.507300,23.870000,8.137280,24.030000,3.787280C24.020000,2.317280,24.870000,1.247280,25.960000,0.367276C29.540000,-0.022725,32.950000,-0.652724,35.890000,1.867280C35.820000,6.847280,35.850000,11.837300,35.810000,16.817300C39.710000,18.477300,43.550000,20.337300,47.540000,21.787300C47.840000,15.747300,47.720000,9.697280,48.020000,3.657280C47.970000,2.297280,49.480000,1.087280,50.460000,0.317276C53.920000,-0.092725,57.070000,-0.482724,59.970000,1.807280C60.180000,8.147280,58.710000,14.257300,58.810000,20.567300C58.870000,25.657300,57.580000,30.577300,57.750000,35.677300C57.680000,39.087300,58.860000,42.247300,58.810000,45.647300C58.890000,50.707300,56.120000,55.777300,56.020000,60.927300C55.890000,64.947300,55.940000,68.867300,55.340000,72.857300C54.310000,79.567300,55.580000,85.617300,53.690000,92.137300C50.780000,92.357300,47.900000,92.347300,45,92.117300C44.470000,84.587300,45.420000,77.217300,45.640000,69.727300C42.070000,71.257300,38.530000,72.807300,34.820000,73.977300C34.740000,79.517300,35.020000,85.077300,34.710000,90.607300C33.480000,93.977300,26.360000,93.797300,25.210000,90.467300C24.750000,84.997300,25.090000,79.437300,24.970000,73.947300C21.440000,72.827300,18.060000,71.357300,14.710000,69.777300C14.710000,77.207300,15.040000,84.657300,14.860000,92.097300C11.270000,93.257300,9.570000,93.107300,6.040000,91.897300C5.550000,87.437300,4.850000,83.037300,4.850000,78.527300C4.910000,73.157300,3.750000,67.927300,3.870000,62.557300C4.200000,56.157300,0.780000,51.007300,1.250000,44.667300C3.110000,30.917300,0.420000,16.497300,0,2.697280C1.390000,-1.012720,4.990000,0.287276,8.130000,0.117276Z" transform="matrix(-1.42810629700924 0.28743800649631 -0.26262204484179 -1.30480597101144 304.56000000000000 249.79100000000000)" fill="rgb(51,51,51)" stroke="none" stroke-width="1"/><path id="eoj8o5ssc5ra32" d="M21.240400,0.505724C34.730400,-2.264280,49.340400,6.625720,52.130400,20.295700C54.320400,29.245700,51.560400,39.455700,44.790400,45.815700C40.610400,49.835700,35.290400,51.855700,29.700400,53.045700C23.180400,54.075700,16.070400,51.445700,10.630400,47.955700C-1.199570,39.925700,-3.429570,21.395700,5.320430,10.355700C9.300430,5.235720,14.950400,1.925720,21.240400,0.505724Z" transform="matrix(-1.42810629700924 0.28743800649631 -0.26262204484179 -1.30480597101144 292.53899999999999 227.22800000000001)" fill="rgb(1,1,1)" stroke="none" stroke-width="1"/><path id="eoj8o5ssc5ra33" d="M23.018800,3.220100C26.248800,6.600100,25.818800,10.420100,26.008800,14.730100C27.558800,15.400100,29.098800,16.100100,30.628800,16.820100C30.868800,21.810100,30.948800,26.830100,30.768800,31.820100C30.718800,33.710100,29.988800,34.800100,28.058800,35.130100C23.798800,35.550100,19.448800,35.210100,15.168800,35.300100C10.158800,35.210100,5.588800,35.760100,0.678804,34.570100C-0.271196,28.650100,-0.121196,22.610100,0.498804,16.670100C1.978800,16.030100,3.458800,15.400100,4.948800,14.800100C5.098800,10.840100,4.808800,6.690100,7.668800,3.550100C11.678800,-1.039900,18.828800,-1.209900,23.018800,3.220100Z" transform="matrix(-1.42810629700924 0.28743800649631 -0.26262204484179 -1.30480597101144 273.42099999999999 222.11500000000001)" fill="rgb(251,201,40)" stroke="none" stroke-width="1"/><path id="eoj8o5ssc5ra34" d="M4.869990,0.793902C6.349990,3.463900,5.419990,5.883900,4.899990,8.643900C3.589990,8.623900,2.289990,8.653900,0.989990,8.783900C0.149990,6.303900,-0.430010,3.943900,0.409990,1.363900C1.929990,-0.416098,2.959990,-0.286098,4.869990,0.793902Z" transform="matrix(-1.42810629700924 0.28743800649631 -0.26262204484179 -1.30480597101144 247.87299999999999 200.63399999999999)" fill="rgb(1,1,1)" stroke="none" stroke-width="1"/><path id="eoj8o5ssc5ra35" d="M8,1.017420C10.670000,2.997420,9.770000,7.017420,9.980000,9.907420C6.660000,9.957420,3.330000,9.967420,0,9.917420C0.050000,7.827420,-0.080000,5.677420,0.240000,3.617420C1.110000,0.267411,5.270000,-1.112580,8,1.017420Z" transform="matrix(-1.42810629700924 0.28743800649631 -0.26262204484179 -1.30480597101144 256.65800000000002 219.42099999999999)" fill="rgb(1,1,1)" stroke="none" stroke-width="1"/></g><path id="eoj8o5ssc5ra36" d="M13.104400,0.818056C20.014400,-1.001950,28.314400,0.058056,33.304400,5.588050C37.264400,10.048100,39.714400,16.298100,42.394400,21.588100C47.614400,31.788100,52.394400,42.198100,57.484400,52.458100C62.344400,62.158100,67.644400,71.718100,72.084400,81.628100C83.394400,79.678100,94.044400,76.088100,104.954000,72.668100C122.174000,66.898100,139.514000,61.298100,157.014000,56.438100C165.264000,53.918100,175.054000,56.748100,180.034000,63.918100C185.414000,72.778100,183.094000,85.038100,174.354000,90.868100C166.784000,95.728100,156.494000,96.938100,147.964000,99.748100C124.964000,107.168000,101.984000,114.838000,78.754400,121.488000C73.274400,123.098000,67.434400,125.888000,61.694400,125.998000C54.274400,125.618000,48.244400,120.608000,44.704400,114.328000C39.254400,104.258000,34.394400,93.778100,29.564400,83.398100C24.014400,72.258100,18.094400,61.318100,12.924400,49.968100C9.134410,41.598100,4.704410,34.048100,1.324410,25.558100C-2.945590,16.158100,3.674410,3.968050,13.104400,0.818056Z" transform="matrix(1 0 0 1 79.31560000000000 158.75200000000001)" fill="rgb(9,9,9)" stroke="none" stroke-width="1"/><path id="eoj8o5ssc5ra37" d="M50.709000,0.058606C65.289000,-0.511394,79.739000,3.018610,90.619000,13.188600C112.629000,31.148600,115.419000,67.878600,97.209000,89.408600C85.709000,103.529000,66.469000,111.709000,48.319000,109.319000C36.619000,107.849000,25.869000,102.499000,17.059000,94.758600C9.699020,87.998600,4.839020,78.318600,1.829020,68.908600C-1.490980,56.238600,-0.300971,42.568600,5.479020,30.758600C9.419020,21.488600,16.399000,15.438600,24.069000,9.278610C31.769000,3.408610,41.209000,0.978606,50.709000,0.058606Z" transform="matrix(1 0 0 1 104.70099999999999 25.48140000000000)" fill="rgb(9,9,9)" stroke="none" stroke-width="1"/></g><g id="eoj8o5ssc5ra38" transform="matrix(4.00615842321933 0 0 4.00615842321933 -509.69642087500023 -15.59957401499844)"><path id="eoj8o5ssc5ra39" d="M0,39.666400C0,38.853900,0.564878,38.308500,1.390700,35.953100C9.046950,15.234400,13.203200,3.843750,13.859400,1.781250C14.234400,0.593750,14.671900,0,15.171900,0C16.015700,0,17.320400,0.078125,19.086000,0.234375C20.851600,0.390625,22.171900,0.468750,23.046900,0.468750C23.890700,0.468750,25.132900,0.414063,26.773500,0.304688C28.414100,0.195313,29.640700,0.140625,30.453200,0.140625C31.046900,0.140625,31.593800,0.656250,32.093800,1.687500C33.625100,4.968750,38.987000,21.084000,46.393300,40.302800M23.421900,23.015600C22.765700,24.390600,21.656300,27.375000,20.093800,31.968800C18.406300,36.843800,17.660000,38.790800,17.660000,39.634500C17.660000,40.197000,18.814100,39.730000,25.201300,39.984600C29.363900,40.080000,46.110900,40.611800,46.329600,40.111800C46.392100,39.955600,28.671900,40.453100,28.671900,40.171900C28.671900,39.140600,27.953200,36.296900,26.515700,31.640600C25.109400,27.140600,24.078200,24.265600,23.421900,23.015600" transform="matrix(0 1 -1 0 255.27799999999999 77.25920000000001)" fill="rgb(0,0,0)" fill-rule="evenodd" stroke="none" stroke-width="1"/><path id="eoj8o5ssc5ra40" d="M65.859400,26.133100C65.859400,26.695600,65.468800,27.086300,64.687600,27.305000C63.750100,27.555000,60.843800,27.680000,55.968800,27.680000C51.499900,27.680000,48.624900,27.555000,47.343800,27.305000C46.281300,27.086300,45.609300,26.383100,45.328200,25.195600C44.265700,20.695700,43.437600,18.289400,42.843800,17.976900C42.343800,17.758100,38.156300,17.648800,30.281300,17.648800C24.968800,17.648800,22.140700,17.789400,21.796800,18.070600C21.265700,18.570600,20.671800,20.242500,20.015700,23.086300C19.421800,25.680000,18.703200,27.086300,17.859300,27.305000C16.796800,27.555000,13.234300,27.680000,7.171880,27.680000C2.390630,27.680000,0,27.226900,0,26.320600C0,25.508200,3.103010,19.327900,10.165500,0.171704C10.057800,0.326797,55.123000,0.254921,55.019800,0C62.457300,19.343700,65.859400,25.289400,65.859400,26.133100" transform="matrix(1 0 0 1 160.45900000000000 123.57200000000000)" fill="rgb(0,0,0)" fill-rule="evenodd" stroke="none" stroke-width="1"/></g><script><![CDATA[!function(t,n){"object"==typeof exports&&"undefined"!=typeof module?module.exports=n():"function"==typeof define&&define.amd?define(n):(t=t||self).__SVGATOR_PLAYER__=n()}(this,(function(){"use strict";function t(n){return(t="function"==typeof Symbol&&"symbol"==typeof Symbol.iterator?function(t){return typeof t}:function(t){return t&&"function"==typeof Symbol&&t.constructor===Symbol&&t!==Symbol.prototype?"symbol":typeof t})(n)}function n(t,n){if(!(t instanceof n))throw new TypeError("Cannot call a class as a function")}function r(t,n){for(var r=0;r<n.length;r++){var e=n[r];e.enumerable=e.enumerable||!1,e.configurable=!0,"value"in e&&(e.writable=!0),Object.defineProperty(t,e.key,e)}}function e(t,n,e){return n&&r(t.prototype,n),e&&r(t,e),t}var i=Math.abs;function u(t){return t}function o(t,n,r){var e=1-r;return 3*r*e*(t*e+n*r)+r*r*r}function a(){var t=arguments.length>0&&void 0!==arguments[0]?arguments[0]:0,n=arguments.length>1&&void 0!==arguments[1]?arguments[1]:0,r=arguments.length>2&&void 0!==arguments[2]?arguments[2]:1,e=arguments.length>3&&void 0!==arguments[3]?arguments[3]:1;return t<0||t>1||r<0||r>1?null:i(t-n)<=1e-5&&i(r-e)<=1e-5?u:function(u){if(u<=0)return t>0?u*n/t:0===n&&r>0?u*e/r:0;if(u>=1)return r<1?1+(u-1)*(e-1)/(r-1):1===r&&t<1?1+(u-1)*(n-1)/(t-1):1;for(var a,l=0,f=1;l<f;){var s=o(t,r,a=(l+f)/2);if(i(u-s)<1e-5)break;s<u?l=a:f=a}return o(n,e,a)}}function l(){return 1}function f(t){return 1===t?1:0}function s(){var t=arguments.length>0&&void 0!==arguments[0]?arguments[0]:1,n=arguments.length>1&&void 0!==arguments[1]?arguments[1]:0;if(1===t){if(0===n)return f;if(1===n)return l}var r=1/t;return function(t){return t>=1?1:(t+=n*r)-t%r}}function c(t){var n=arguments.length>1&&void 0!==arguments[1]?arguments[1]:2;if(Number.isInteger(t))return t;var r=Math.pow(10,n);return Math.round(t*r)/r}var v=Math.PI/180;function h(t,n,r){return t>=.5?r:n}function y(t,n,r){return 0===t||n===r?n:t*(r-n)+n}function d(t,n,r){var e=y(t,n,r);return e<=0?0:e}function g(t,n,r){return 0===t?n:1===t?r:{x:y(t,n.x,r.x),y:y(t,n.y,r.y)}}function m(t,n,r){return 0===t?n:1===t?r:{x:d(t,n.x,r.x),y:d(t,n.y,r.y)}}function p(t,n,r){var e=function(t,n,r){return Math.round(y(t,n,r))}(t,n,r);return e<=0?0:e>=255?255:e}function b(t,n,r){return 0===t?n:1===t?r:{r:p(t,n.r,r.r),g:p(t,n.g,r.g),b:p(t,n.b,r.b),a:y(t,null==n.a?1:n.a,null==r.a?1:r.a)}}function w(t,n,r){if(0===t)return n;if(1===t)return r;var e=n.length;if(e!==r.length)return h(t,n,r);for(var i=[],u=0;u<e;u++)i.push(b(t,n[u],r[u]));return i}function A(t,n,r){var e=n.length;if(e!==r.length)return h(t,n,r);for(var i=new Array(e),u=0;u<e;u++)i[u]=y(t,n[u],r[u]);return i}function x(t,n){for(var r=[],e=0;e<t;e++)r.push(n);return r}function k(t,n){if(--n<=0)return t;var r=(t=Object.assign([],t)).length;do{for(var e=0;e<r;e++)t.push(t[e])}while(--n>0);return t}var S=/\.0+$/g;function _(t){return Number.isInteger(t)?t+"":t.toFixed(6).replace(S,"")}function M(t){var n=arguments.length>1&&void 0!==arguments[1]?arguments[1]:" ";return t&&t.length?t.map(_).join(n):""}function I(t){return _(t.x)+","+_(t.y)}function E(t){return t?null==t.a||t.a>=1?"rgb("+t.r+","+t.g+","+t.b+")":"rgba("+t.r+","+t.g+","+t.b+","+t.a+")":"transparent"}var F={f:null,i:m,u:function(t,n){return function(r){var e=n(r);t.setAttribute("rx",_(e.x)),t.setAttribute("ry",_(e.y))}}},B={f:null,i:function(t,n,r){return 0===t?n:1===t?r:{width:d(t,n.width,r.width),height:d(t,n.height,r.height)}},u:function(t,n){return function(r){var e=n(r);t.setAttribute("width",_(e.width)),t.setAttribute("height",_(e.height))}}},j=Math.sin,q=Math.cos,P=Math.acos,O=Math.asin,z=Math.tan,L=Math.atan2,C=Math.PI/180,R=180/Math.PI,T=Math.sqrt,V=function(){function t(){var r=arguments.length>0&&void 0!==arguments[0]?arguments[0]:1,e=arguments.length>1&&void 0!==arguments[1]?arguments[1]:0,i=arguments.length>2&&void 0!==arguments[2]?arguments[2]:0,u=arguments.length>3&&void 0!==arguments[3]?arguments[3]:1,o=arguments.length>4&&void 0!==arguments[4]?arguments[4]:0,a=arguments.length>5&&void 0!==arguments[5]?arguments[5]:0;n(this,t),this.m=[r,e,i,u,o,a],this.i=null,this.w=null,this.s=null}return e(t,[{key:"point",value:function(t,n){var r=this.m;return{x:r[0]*t+r[2]*n+r[4],y:r[1]*t+r[3]*n+r[5]}}},{key:"translateSelf",value:function(){var t=arguments.length>0&&void 0!==arguments[0]?arguments[0]:0,n=arguments.length>1&&void 0!==arguments[1]?arguments[1]:0;if(!t&&!n)return this;var r=this.m;return r[4]+=r[0]*t+r[2]*n,r[5]+=r[1]*t+r[3]*n,this.w=this.s=this.i=null,this}},{key:"rotateSelf",value:function(){var t=arguments.length>0&&void 0!==arguments[0]?arguments[0]:0;if(t%=360){var n=j(t*=C),r=q(t),e=this.m,i=e[0],u=e[1];e[0]=i*r+e[2]*n,e[1]=u*r+e[3]*n,e[2]=e[2]*r-i*n,e[3]=e[3]*r-u*n,this.w=this.s=this.i=null}return this}},{key:"scaleSelf",value:function(){var t=arguments.length>0&&void 0!==arguments[0]?arguments[0]:1,n=arguments.length>1&&void 0!==arguments[1]?arguments[1]:1;if(1!==t||1!==n){var r=this.m;r[0]*=t,r[1]*=t,r[2]*=n,r[3]*=n,this.w=this.s=this.i=null}return this}},{key:"skewSelf",value:function(t,n){if(n%=360,(t%=360)||n){var r=this.m,e=r[0],i=r[1],u=r[2],o=r[3];t&&(t=z(t*C),r[2]+=e*t,r[3]+=i*t),n&&(n=z(n*C),r[0]+=u*n,r[1]+=o*n),this.w=this.s=this.i=null}return this}},{key:"resetSelf",value:function(){var t=arguments.length>0&&void 0!==arguments[0]?arguments[0]:1,n=arguments.length>1&&void 0!==arguments[1]?arguments[1]:0,r=arguments.length>2&&void 0!==arguments[2]?arguments[2]:0,e=arguments.length>3&&void 0!==arguments[3]?arguments[3]:1,i=arguments.length>4&&void 0!==arguments[4]?arguments[4]:0,u=arguments.length>5&&void 0!==arguments[5]?arguments[5]:0,o=this.m;return o[0]=t,o[1]=n,o[2]=r,o[3]=e,o[4]=i,o[5]=u,this.w=this.s=this.i=null,this}},{key:"recomposeSelf",value:function(){var t=arguments.length>0&&void 0!==arguments[0]?arguments[0]:null,n=arguments.length>1&&void 0!==arguments[1]?arguments[1]:null,r=arguments.length>2&&void 0!==arguments[2]?arguments[2]:null,e=arguments.length>3&&void 0!==arguments[3]?arguments[3]:null,i=arguments.length>4&&void 0!==arguments[4]?arguments[4]:null;return this.isIdentity||this.resetSelf(),t&&(t.x||t.y)&&this.translateSelf(t.x,t.y),n&&this.rotateSelf(n),r&&(r.x&&this.skewSelf(r.x,0),r.y&&this.skewSelf(0,r.y)),!e||1===e.x&&1===e.y||this.scaleSelf(e.x,e.y),i&&(i.x||i.y)&&this.translateSelf(i.x,i.y),this}},{key:"decompose",value:function(){var t=arguments.length>0&&void 0!==arguments[0]?arguments[0]:0,n=arguments.length>1&&void 0!==arguments[1]?arguments[1]:0,r=this.m,e=r[0]*r[0]+r[1]*r[1],i=[[r[0],r[1]],[r[2],r[3]]],u=T(e);if(0===u)return{origin:{x:r[4],y:r[5]},translate:{x:t,y:n},scale:{x:0,y:0},skew:{x:0,y:0},rotate:0};i[0][0]/=u,i[0][1]/=u;var o=r[0]*r[3]-r[1]*r[2]<0;o&&(u=-u);var a=i[0][0]*i[1][0]+i[0][1]*i[1][1];i[1][0]-=i[0][0]*a,i[1][1]-=i[0][1]*a;var l=T(i[1][0]*i[1][0]+i[1][1]*i[1][1]);if(0===l)return{origin:{x:r[4],y:r[5]},translate:{x:t,y:n},scale:{x:u,y:0},skew:{x:0,y:0},rotate:0};i[1][0]/=l,i[1][1]/=l,a/=l;var f=0;return i[1][1]<0?(f=P(i[1][1])*R,i[0][1]<0&&(f=360-f)):f=O(i[0][1])*R,o&&(f=-f),a=L(a,T(i[0][0]*i[0][0]+i[0][1]*i[0][1]))*R,{origin:{x:r[4],y:r[5]},translate:{x:t,y:n},scale:{x:u,y:l},skew:{x:a,y:0},rotate:f}}},{key:"toString",value:function(){return null===this.s&&(this.s="matrix("+this.m.map(N).join(" ")+")"),this.s}},{key:"determinant",get:function(){var t=this.m;return t[0]*t[3]-t[1]*t[2]}},{key:"isIdentity",get:function(){if(null===this.i){var t=this.m;this.i=1===t[0]&&0===t[1]&&0===t[2]&&1===t[3]&&0===t[4]&&0===t[5]}return this.i}}]),t}(),D=/\.0+$/;function N(t){return Number.isInteger(t)?t:t.toFixed(14).replace(D,"")}Object.freeze({M:2,L:2,Z:0,H:1,V:1,C:6,Q:4,T:2,S:4,A:7});function G(t,n,r){return t+(n-t)*r}function $(t,n,r){var e=arguments.length>3&&void 0!==arguments[3]&&arguments[3],i={x:G(t.x,n.x,r),y:G(t.y,n.y,r)};return e&&(i.a=H(t,n)),i}function H(t,n){return Math.atan2(n.y-t.y,n.x-t.x)}function Q(t,n,r,e){var i=1-e;return i*i*t+2*i*e*n+e*e*r}function U(t,n,r,e){return 2*(1-e)*(n-t)+2*e*(r-n)}function Y(t,n,r,e){var i=arguments.length>4&&void 0!==arguments[4]&&arguments[4],u={x:Q(t.x,n.x,r.x,e),y:Q(t.y,n.y,r.y,e)};return i&&(u.a=Z(t,n,r,e)),u}function Z(t,n,r,e){return Math.atan2(U(t.y,n.y,r.y,e),U(t.x,n.x,r.x,e))}function J(t,n,r,e,i){var u=i*i;return i*u*(e-t+3*(n-r))+3*u*(t+r-2*n)+3*i*(n-t)+t}function K(t,n,r,e,i){var u=1-i;return 3*(u*u*(n-t)+2*u*i*(r-n)+i*i*(e-r))}function W(t,n,r,e,i){var u=arguments.length>5&&void 0!==arguments[5]&&arguments[5],o={x:J(t.x,n.x,r.x,e.x,i),y:J(t.y,n.y,r.y,e.y,i)};return u&&(o.a=X(t,n,r,e,i)),o}function X(t,n,r,e,i){return Math.atan2(K(t.y,n.y,r.y,e.y,i),K(t.x,n.x,r.x,e.x,i))}function tt(t,n,r){var e=arguments.length>3&&void 0!==arguments[3]&&arguments[3];if(rt(n)){if(et(r))return Y(n,r.start,r,t,e)}else if(rt(r)){if(n.end)return Y(n,n.end,r,t,e)}else{if(n.end)return r.start?W(n,n.end,r.start,r,t,e):Y(n,n.end,r,t,e);if(r.start)return Y(n,r.start,r,t,e)}return $(n,r,t,e)}function nt(t,n,r){var e=tt(t,n,r,!0);return e.a=function(t){var n=arguments.length>1&&void 0!==arguments[1]&&arguments[1];return n?t+Math.PI:t}(e.a)/v,e}function rt(t){return!t.type||"corner"===t.type}function et(t){return null!=t.start&&!rt(t)}var it=new V;var ut={f:function(t){return t?t.join(" "):""},i:function(n,r,e){if(0===n)return r;if(1===n)return e;var i=r.length;if(i!==e.length)return h(n,r,e);for(var u,o=new Array(i),a=0;a<i;a++){if((u=t(r[a]))!==t(e[a]))return h(n,r,e);if("number"===u)o[a]=y(n,r[a],e[a]);else{if(r[a]!==e[a])return h(n,r,e);o[a]=r[a]}}return o}},ot={f:null,i:A,u:function(t,n){return function(r){var e=n(r);t.setAttribute("x1",_(e[0])),t.setAttribute("y1",_(e[1])),t.setAttribute("x2",_(e[2])),t.setAttribute("y2",_(e[3]))}}},at={f:_,i:y},lt={f:_,i:function(t,n,r){var e=y(t,n,r);return e<=0?0:e>=1?1:e}},ft={f:M,i:function(t,n,r){var e,i,u,o=n.length,a=r.length;if(o!==a)if(0===o)n=x(o=a,0);else if(0===a)a=o,r=x(o,0);else{var l=(u=(e=o)*(i=a)/function(t,n){for(var r;n;)r=n,n=t%n,t=r;return t||1}(e,i))<0?-u:u;n=k(n,Math.floor(l/o)),r=k(r,Math.floor(l/a)),o=a=l}for(var f=[],s=0;s<o;s++)f.push(c(d(t,n[s],r[s]),6));return f}};function st(t,n,r,e,i,u,o,a){return n=function(t,n,r){for(var e,i,u,o=t.length-1,a={},l=0;l<=o;l++)(e=t[l]).e&&(e.e=n(e.e)),e.v&&"g"===(i=e.v).t&&i.r&&(u=r.getElementById(i.r))&&(a[i.r]=u.querySelectorAll("stop"));return a}(t,e,a),function(e){var i,u=r(e,t,ct);return u?"c"===u.t?E(u.v):"g"===u.t?(n[u.r]&&function(t,n){for(var r=0,e=t.length;r<e;r++)t[r].setAttribute("stop-color",E(n[r]))}(n[u.r],u.v),(i=u.r)?"url(#"+i+")":"none"):"none":"none"}}function ct(t,n,r){if(0===t)return n;if(1===t)return r;if(n&&r){var e=n.t;if(e===r.t)switch(n.t){case"c":return{t:e,v:b(t,n.v,r.v)};case"g":if(n.r===r.r)return{t:e,v:w(t,n.v,r.v),r:n.r}}}return h(t,n,r)}var vt={blur:m,brightness:d,contrast:d,"drop-shadow":function(t,n,r){return 0===t?n:1===t?r:{blur:m(t,n.blur,r.blur),offset:g(t,n.offset,r.offset),color:b(t,n.color,r.color)}},grayscale:d,"hue-rotate":y,invert:d,opacity:d,saturate:d,sepia:d};function ht(t,n,r){if(0===t)return n;if(1===t)return r;var e=n.length;if(e!==r.length)return h(t,n,r);for(var i,u=[],o=0;o<e;o++){if(n[o].type!==r[o].type)return n;if(!(i=vt[n[o].type]))return h(t,n,r);u.push({type:n.type,value:i(t,n[o].value,r[o].value)})}return u}var yt={blur:function(t){return t?function(n){t.setAttribute("stdDeviation",I(n))}:null},brightness:function(t,n,r){return(t=gt(r,n))?function(n){n=_(n),t.map((function(t){return t.setAttribute("slope",n)}))}:null},contrast:function(t,n,r){return(t=gt(r,n))?function(n){var r=_((1-n)/2);n=_(n),t.map((function(t){t.setAttribute("slope",n),t.setAttribute("intercept",r)}))}:null},"drop-shadow":function(t,n,r){var e=r.getElementById(n+"-blur");if(!e)return null;var i=r.getElementById(n+"-offset");if(!i)return null;var u=r.getElementById(n+"-flood");return u?function(t){e.setAttribute("stdDeviation",I(t.blur)),i.setAttribute("dx",_(t.offset.x)),i.setAttribute("dy",_(t.offset.y)),u.setAttribute("flood-color",E(t.color))}:null},grayscale:function(t){return t?function(n){t.setAttribute("values",M(function(t){return[.2126+.7874*(t=1-t),.7152-.7152*t,.0722-.0722*t,0,0,.2126-.2126*t,.7152+.2848*t,.0722-.0722*t,0,0,.2126-.2126*t,.7152-.7152*t,.0722+.9278*t,0,0,0,0,0,1,0]}(n)))}:null},"hue-rotate":function(t){return t?function(n){return t.setAttribute("values",_(n))}:null},invert:function(t,n,r){return(t=gt(r,n))?function(n){n=_(n)+" "+_(1-n),t.map((function(t){return t.setAttribute("tableValues",n)}))}:null},opacity:function(t,n,r){return(t=r.getElementById(n+"-A"))?function(n){return t.setAttribute("tableValues","0 "+_(n))}:null},saturate:function(t){return t?function(n){return t.setAttribute("values",_(n))}:null},sepia:function(t){return t?function(n){return t.setAttribute("values",M(function(t){return[.393+.607*(t=1-t),.769-.769*t,.189-.189*t,0,0,.349-.349*t,.686+.314*t,.168-.168*t,0,0,.272-.272*t,.534-.534*t,.131+.869*t,0,0,0,0,0,1,0]}(n)))}:null}};var dt=["R","G","B"];function gt(t,n){var r=dt.map((function(r){return t.getElementById(n+"-"+r)||null}));return-1!==r.indexOf(null)?null:r}var mt={fill:st,"fill-opacity":lt,stroke:st,"stroke-opacity":lt,"stroke-width":at,"stroke-dashoffset":{f:_,i:y},"stroke-dasharray":ft,opacity:lt,transform:function(n,r,e,i){if(!(n=function(n,r){if(!n||"object"!==t(n))return null;var e=!1;for(var i in n)n.hasOwnProperty(i)&&(n[i]&&n[i].length?(n[i].forEach((function(t){t.e&&(t.e=r(t.e))})),e=!0):delete n[i]);return e?n:null}(n,i)))return null;var u=function(t,i,u){var o=arguments.length>3&&void 0!==arguments[3]?arguments[3]:null;return n[t]?e(i,n[t],u):r&&r[t]?r[t]:o};return r&&r.a&&n.o?function(t){var r=e(t,n.o,nt);return it.recomposeSelf(r,u("r",t,y,0)+r.a,u("k",t,g),u("s",t,g),u("t",t,g)).toString()}:function(t){return it.recomposeSelf(u("o",t,tt,null),u("r",t,y,0),u("k",t,g),u("s",t,g),u("t",t,g)).toString()}},"#filter":function(t,n,r,e,i,u,o,a){if(!n.items||!t||!t.length)return null;var l=function(t,n){var r=(t=t.map((function(t){return t&&yt[t[0]]?(n.getElementById(t[1]),yt[t[0]](n.getElementById(t[1]),t[1],n)):null}))).length;return function(n){for(var e=0;e<r;e++)t[e]&&t[e](n[e].value)}}(n.items,a);return l?(t=function(t,n){return t.map((function(t){return t.e=n(t.e),t}))}(t,e),function(n){l(r(n,t,ht))}):null},"#line":ot,points:{f:M,i:A},d:ut,r:at,"#size":B,"#radius":F,_:function(t,n){if(Array.isArray(t))for(var r=0;r<t.length;r++)this[t[r]]=n;else this[t]=n}},pt=function(){function t(r){n(this,t),this.list=r,this.length=r.length}return e(t,[{key:"setAttribute",value:function(t,n){for(var r=this.list,e=0;e<this.length;e++)r[e].setAttribute(t,n)}},{key:"removeAttribute",value:function(t){for(var n=this.list,r=0;r<this.length;r++)n[r].removeAttribute(t)}},{key:"style",value:function(t,n){for(var r=this.list,e=0;e<this.length;e++)r[e].style[t]=n}}]),t}(),bt=/-./g,wt=function(t,n){return n.toUpperCase()};function At(t){return"function"==typeof t?t:h}function xt(t){return t?"function"==typeof t?t:Array.isArray(t)?function(t){var n=arguments.length>1&&void 0!==arguments[1]?arguments[1]:u;if(!Array.isArray(t))return n;switch(t.length){case 1:return s(t[0])||n;case 2:return s(t[0],t[1])||n;case 4:return a(t[0],t[1],t[2],t[3])||n}return n}(t,null):function(t,n){var r=arguments.length>2&&void 0!==arguments[2]?arguments[2]:u;switch(t){case"linear":return u;case"steps":return s(n.steps||1,n.jump||0)||r;case"bezier":case"cubic-bezier":return a(n.x1||0,n.y1||0,n.x2||0,n.y2||0)||r}return r}(t.type,t.value,null):null}function kt(t,n,r){var e=arguments.length>3&&void 0!==arguments[3]&&arguments[3],i=n.length-1;if(t<=n[0].t)return e?[0,0,n[0].v]:n[0].v;if(t>=n[i].t)return e?[i,1,n[i].v]:n[i].v;var u,o=n[0],a=null;for(u=1;u<=i;u++){if(!(t>n[u].t)){a=n[u];break}o=n[u]}return null==a?e?[i,1,n[i].v]:n[i].v:o.t===a.t?e?[u,1,a.v]:a.v:(t=(t-o.t)/(a.t-o.t),o.e&&(t=o.e(t)),e?[u,t,r(t,o.v,a.v)]:r(t,o.v,a.v))}function St(t,n){var r=arguments.length>2&&void 0!==arguments[2]?arguments[2]:null;return t&&t.length?"function"!=typeof n?null:("function"!=typeof r&&(r=null),function(e){var i=kt(e,t,n);return null!=i&&r&&(i=r(i)),i}):null}function _t(t,n){return t.t-n.t}function Mt(n,r,e,i,u){var o,a="@"===e[0],l="#"===e[0],f=mt[e],s=h;switch(a?(o=e.substr(1),e=o.replace(bt,wt)):l&&(e=e.substr(1)),t(f)){case"function":if(s=f(i,u,kt,xt,e,a,r,n),l)return s;break;case"string":s=St(i,At(f));break;case"object":if((s=St(i,At(f.i),f.f))&&"function"==typeof f.u)return f.u(r,s,e,a,n)}return s?function(t,n,r){var e=arguments.length>3&&void 0!==arguments[3]&&arguments[3];if(e)return t instanceof pt?function(e){return t.style(n,r(e))}:function(e){return t.style[n]=r(e)};if(Array.isArray(n)){var i=n.length;return function(e){var u=r(e);if(null==u)for(var o=0;o<i;o++)t[o].removeAttribute(n);else for(var a=0;a<i;a++)t[a].setAttribute(n,u)}}return function(e){var i=r(e);null==i?t.removeAttribute(n):t.setAttribute(n,i)}}(r,e,s,a):null}function It(n,r,e,i){if(!i||"object"!==t(i))return null;var u=null,o=null;return Array.isArray(i)?o=function(t){if(!t||!t.length)return null;for(var n=0;n<t.length;n++)t[n].e&&(t[n].e=xt(t[n].e));return t.sort(_t)}(i):(o=i.keys,u=i.data||null),o?Mt(n,r,e,o,u):null}function Et(t,n,r){if(!r)return null;var e=[];for(var i in r)if(r.hasOwnProperty(i)){var u=It(t,n,i,r[i]);u&&e.push(u)}return e.length?e:null}function Ft(t,n){if(!n.duration||n.duration<0)return null;var r=function(t,n){if(!n)return null;var r=[];if(Array.isArray(n))for(var e=n.length,i=0;i<e;i++){var u=n[i];if(2===u.length){var o=null;if("string"==typeof u[0])o=t.getElementById(u[0]);else if(Array.isArray(u[0])){o=[];for(var a=0;a<u[0].length;a++)if("string"==typeof u[0][a]){var l=t.getElementById(u[0][a]);l&&o.push(l)}o=o.length?1===o.length?o[0]:new pt(o):null}if(o){var f=Et(t,o,u[1]);f&&(r=r.concat(f))}}}else for(var s in n)if(n.hasOwnProperty(s)){var c=t.getElementById(s);if(c){var v=Et(t,c,n[s]);v&&(r=r.concat(v))}}return r.length?r:null}(t,n.elements);return r?function(t,n){var r=arguments.length>2&&void 0!==arguments[2]?arguments[2]:1/0,e=arguments.length>3&&void 0!==arguments[3]?arguments[3]:1,i=arguments.length>4&&void 0!==arguments[4]&&arguments[4],u=arguments.length>5&&void 0!==arguments[5]?arguments[5]:1,o=t.length,a=e>0?n:0;i&&r%2==0&&(a=n-a);var l=null;return function(f,s){var c=f%n,v=1+(f-c)/n;s*=e,i&&v%2==0&&(s=-s);var h=!1;if(v>r)c=a,h=!0,-1===u&&(c=e>0?0:n);else if(s<0&&(c=n-c),c===l)return!1;l=c;for(var y=0;y<o;y++)t[y](c);return h}}(r,n.duration,n.iterations||1/0,n.direction||1,!!n.alternate,n.fill||1):null}var Bt=function(){function t(r){var e=arguments.length>1&&void 0!==arguments[1]?arguments[1]:{};n(this,t),this._id=0,this._running=!1,this._animations=r,this.direction=e.direction||1,this.speed=e.speed||1,this.fps=e.fps||100,this.offset=e.offset||0}return e(t,[{key:"_start",value:function(){var t=this,n=arguments.length>0&&void 0!==arguments[0]?arguments[0]:0,r=-1/0,e=null,i={},u=function u(o){t._running=!0,null==e&&(e=o);var a=Math.round((o-e+n)*t.speed),l=t.fps?1e3/t.fps:0;if(a>r+l){t.offset=a,r=a;for(var f=t._animations,s=f.length,c=0,v=0;v<s;v++)i[v]?c++:(i[v]=f[v](a,t.direction),i[v]&&c++);if(c===s)return void t._stop()}t._id=window.requestAnimationFrame(u)};this._id=window.requestAnimationFrame(u)}},{key:"_stop",value:function(){this._id&&window.cancelAnimationFrame(this._id),this._running=!1}},{key:"play",value:function(){this._running||this._start(this.offset)}},{key:"stop",value:function(){this._stop(),this.offset=0;var t=this.direction,n=this._animations;requestAnimationFrame((function(){for(var r=0;r<n.length;r++)n[r](0,t)}))}},{key:"restart",value:function(){this._stop(),this.offset=0,this._start()}},{key:"pause",value:function(){this._stop()}},{key:"reverse",value:function(){this.direction=-this.direction}}],[{key:"build",value:function(n){if(!(n=function(t){if(!t||!t.root||!Array.isArray(t.animations))return null;var n=window.document.getElementById(t.root);if(!n)return null;var r=t.animations.map((function(t){return Ft(n,t)})).filter((function(t){return!!t}));return r.length?{element:n,animations:r,options:t.options||void 0}:null}(n)))return null;var r=n.element,e=n.options||{},i=new t(n.animations,n.options);return function(t,n,r){var e=arguments.length>3&&void 0!==arguments[3]?arguments[3]:null;if("click"===r){var i=function r(){n.removeEventListener("click",r),t.play()};return void n.addEventListener("click",i)}if("hover"===r)return n.addEventListener("mouseenter",(function(){return t.play()})),void n.addEventListener("mouseleave","freeze"===e?function(){return t.pause()}:function(){return t.stop()});t.play()}(i,r,e.start,e.hover),i}}]),t}();return function(){for(var t=0,n=["ms","moz","webkit","o"],r=0;r<n.length&&!window.requestAnimationFrame;++r)window.requestAnimationFrame=window[n[r]+"RequestAnimationFrame"],window.cancelAnimationFrame=window[n[r]+"CancelAnimationFrame"]||window[n[r]+"CancelRequestAnimationFrame"];window.requestAnimationFrame||(window.requestAnimationFrame=function(n){var r=Date.now(),e=Math.max(0,16-(r-t)),i=window.setTimeout((function(){n(r+e)}),e);return t=r+e,i},window.cancelAnimationFrame=window.clearTimeout)}(),Bt}));
__SVGATOR_PLAYER__.build({"root":"eoj8o5ssc5ra1","animations":[{"duration":4000,"direction":1,"iterations":0,"fill":1,"alternate":false,"elements":{"eoj8o5ssc5ra2":{"transform":{"keys":{"o":[{"t":0,"v":{"x":0,"y":-3,"type":"corner"}},{"t":2000,"v":{"x":0.0033233550004467816,"y":344.99086304,"type":"corner"}},{"t":2100,"v":{"x":0.0033233550004467816,"y":-376.40913696000007,"type":"corner"}},{"t":4000,"v":{"x":0.0033233550004467816,"y":-2.9991369600001008,"type":"corner"}}]}},"opacity":[{"t":0,"v":1},{"t":1900,"v":1},{"t":2000,"v":0},{"t":2200,"v":0},{"t":2300,"v":1}]},"eoj8o5ssc5ra13":{"transform":{"keys":{"o":[{"t":0,"v":{"x":0.00332335500041836,"y":-376.4044161599995,"type":"corner"}},{"t":2000,"v":{"x":0.003323355000105721,"y":-2.9991369599999302,"type":"corner"}},{"t":4000,"v":{"x":0.003323355000105721,"y":344.0008630400001,"type":"corner"}}]}}},"eoj8o5ssc5ra28":{"transform":{"data":{"o":{"x":98.6178,"y":128.954,"type":"corner"}},"keys":{"r":[{"t":0,"v":0},{"t":1000,"v":2},{"t":2000,"v":0},{"t":3000,"v":2},{"t":4000,"v":0}]}}},"eoj8o5ssc5ra29":{"transform":{"keys":{"r":[{"t":0,"v":0},{"t":1000,"v":3},{"t":2000,"v":0},{"t":3000,"v":3},{"t":4000,"v":0}]}}},"eoj8o5ssc5ra36":{"transform":{"data":{"o":{"x":79.3156,"y":158.752,"type":"corner"}},"keys":{"r":[{"t":0,"v":0},{"t":1000,"v":5},{"t":2000,"v":0},{"t":3000,"v":5},{"t":4000,"v":0}]}}}}}],"options":{"start":"load","hover":"freeze"}})]]></script></svg>